<svg xmlns="http://www.w3.org/2000/svg">
  <!-- Iconix by Rijal. Exported from the user-provided Figma Community file. See THIRD_PARTY_NOTICES.md. -->
  <defs>
    <g id="iconix-source">
<path xmlns="http://www.w3.org/2000/svg" stroke="currentColor" stroke-linecap="round" stroke-linejoin="round" stroke-width="1.5" d="m42 50 8.75-7a2 2 0 0 1 2.5 0L62 50" />
<path xmlns="http://www.w3.org/2000/svg" stroke="currentColor" stroke-width="1.5" d="m49.478 44.05-4 3.25c-.727.59-1.09.885-1.284 1.292S44 49.468 44 50.404V54c0 3.771 0 5.657 1.172 6.828S48.229 62 52 62s5.657 0 6.828-1.172S60 57.771 60 54v-3.596c0-.936 0-1.404-.194-1.812-.194-.407-.557-.703-1.284-1.293l-4-3.25c-1.208-.981-1.812-1.472-2.522-1.472s-1.314.49-2.522 1.472Z" />
<path xmlns="http://www.w3.org/2000/svg" stroke="currentColor" stroke-linecap="round" stroke-width="1.5" d="M49.75 56.25h4.5m35.5 0h4.5" />
<path xmlns="http://www.w3.org/2000/svg" fill-rule="evenodd" stroke="currentColor" stroke-linecap="round" stroke-linejoin="round" stroke-width="1.5" d="M82 53.713c0-5.631.64-5.238 4.088-8.303 1.509-1.164 3.856-3.41 5.883-3.41 2.026 0 4.42 2.235 5.942 3.41 3.447 3.065 4.087 2.672 4.087 8.303C102 62 99.956 62 92 62s-10 0-10-8.287" clip-rule="evenodd" />
<mask xmlns="http://www.w3.org/2000/svg" id="mask0_2_379" width="18" height="21" x="123" y="42" maskUnits="userSpaceOnUse" style="mask-type:alpha"><path fill="currentColor" fill-rule="evenodd" d="M124.172 43.172C123 44.343 123 46.229 123 50v10.601c0 1.525 1.638 2.489 2.971 1.748l5.058-2.81a2 2 0 0 1 1.942 0l5.058 2.81c1.333.74 2.971-.223 2.971-1.748V50c0-3.771 0-5.657-1.172-6.828S136.771 42 133 42h-2c-3.771 0-5.657 0-6.828 1.172" clip-rule="evenodd" /></mask>
<g xmlns="http://www.w3.org/2000/svg" mask="url(#mask0_2_379)"><path fill="currentColor" d="m139.828 43.172 1.061-1.061zm-8.799 16.368.728 1.31zm1.942 0-.728 1.31zm-7 2.81.729 1.31zM124.5 50c0-1.928.003-3.223.133-4.19.124-.922.339-1.317.599-1.578l-2.121-2.121c-.911.91-1.282 2.045-1.451 3.3-.163 1.212-.16 2.746-.16 4.589zm0 10.601V50h-3v10.601zm2.2 3.06 5.057-2.81-1.457-2.623-5.057 2.81zm5.543-2.81 5.057 2.81 1.457-2.623-5.057-2.81zM139.5 50v10.601h3V50zm-.732-5.768c.26.26.475.656.599 1.579.13.966.133 2.261.133 4.189h3c0-1.843.003-3.376-.16-4.589-.169-1.255-.54-2.39-1.451-3.3zM133 43.5c1.928 0 3.223.003 4.189.133.923.124 1.318.339 1.579.6l2.121-2.122c-.911-.911-2.044-1.282-3.3-1.451-1.212-.163-2.746-.16-4.589-.16zm-2 0h2v-3h-2zm-5.768.732c.261-.26.656-.475 1.579-.599.966-.13 2.261-.133 4.189-.133v-3c-1.843 0-3.377-.003-4.589.16-1.256.169-2.389.54-3.3 1.45zM137.3 63.661c2.333 1.296 5.2-.391 5.2-3.06h-3a.5.5 0 0 1-.743.437zm-5.543-2.81a.5.5 0 0 1 .486 0l1.457-2.623a3.5 3.5 0 0 0-3.4 0zM121.5 60.6c0 2.669 2.867 4.356 5.2 3.06l-1.457-2.623a.5.5 0 0 1-.743-.437z" /><path stroke="currentColor" stroke-linecap="round" stroke-width="1.5" d="M129.75 50.25h4.5" /></g>
<path xmlns="http://www.w3.org/2000/svg" stroke="currentColor" stroke-width="1.5" d="M177 42.75h-10a4.25 4.25 0 0 0-4.25 4.25v10a4.25 4.25 0 0 0 4.25 4.25h10a4.25 4.25 0 0 0 4.25-4.25V47a4.25 4.25 0 0 0-4.25-4.25Z" />
<path xmlns="http://www.w3.org/2000/svg" stroke="currentColor" stroke-linecap="round" stroke-linejoin="round" stroke-width="1.5" d="m167 55 3.704-4 2.222 2.4L177 49" />
<path xmlns="http://www.w3.org/2000/svg" stroke="currentColor" stroke-width="1.5" d="M217 42.75h-10a4.25 4.25 0 0 0-4.25 4.25v10a4.25 4.25 0 0 0 4.25 4.25h10a4.25 4.25 0 0 0 4.25-4.25V47a4.25 4.25 0 0 0-4.25-4.25Z" />
<path xmlns="http://www.w3.org/2000/svg" stroke="currentColor" stroke-linecap="round" stroke-width="1.5" d="M208.25 51.75v4.5m4-8.5v8.5m4-5.5v5.5" />
<path xmlns="http://www.w3.org/2000/svg" fill="currentColor" fill-rule="evenodd" d="M249.453 43.351c.445-.095.844.26.844.715 0 .378-.279.694-.647.778a7.928 7.928 0 1 0 9.502 9.52c.085-.367.401-.645.778-.645.456 0 .811.4.715.845-.914 4.25-4.693 7.436-9.217 7.436A9.43 9.43 0 0 1 242 52.572c0-4.53 3.194-8.313 7.453-9.22" clip-rule="evenodd" />
<mask xmlns="http://www.w3.org/2000/svg" id="mask1_2_379" width="10" height="10" x="252" y="42" maskUnits="userSpaceOnUse" style="mask-type:alpha"><path fill="currentColor" d="M260.015 52c1.104 0 2.02-.904 1.8-1.987a10 10 0 0 0-7.814-7.814c-1.082-.22-1.986.696-1.986 1.801v6a2 2 0 0 0 2 2z" /></mask>
<g xmlns="http://www.w3.org/2000/svg" mask="url(#mask1_2_379)"><path stroke="currentColor" stroke-width="3" d="M260.015 52c1.104 0 2.02-.904 1.8-1.987a10 10 0 0 0-7.814-7.814c-1.082-.22-1.986.696-1.986 1.801v6a2 2 0 0 0 2 2z" /></g>
<path xmlns="http://www.w3.org/2000/svg" stroke="currentColor" stroke-width="1.5" d="M297 42.75h-10a4.25 4.25 0 0 0-4.25 4.25v10a4.25 4.25 0 0 0 4.25 4.25h10a4.25 4.25 0 0 0 4.25-4.25V47a4.25 4.25 0 0 0-4.25-4.25Z" />
<path xmlns="http://www.w3.org/2000/svg" stroke="currentColor" stroke-linecap="round" stroke-linejoin="round" stroke-width="1.5" d="M286 52h3.231l1.384 4 1.847-8 1.384 4H298" />
<path xmlns="http://www.w3.org/2000/svg" stroke="currentColor" stroke-width="1.5" d="M337 42.75h-10a4.25 4.25 0 0 0-4.25 4.25v10a4.25 4.25 0 0 0 4.25 4.25h10a4.25 4.25 0 0 0 4.25-4.25V47a4.25 4.25 0 0 0-4.25-4.25Z" />
<path xmlns="http://www.w3.org/2000/svg" stroke="currentColor" stroke-linecap="round" stroke-linejoin="round" stroke-width="1.5" d="m327 55.8 1.125 1.2L330 55m-3-7.2 1.125 1.2L330 47" />
<path xmlns="http://www.w3.org/2000/svg" stroke="currentColor" stroke-linecap="round" stroke-width="1.5" d="M333 48h4m-4 8h4" />
<path xmlns="http://www.w3.org/2000/svg" stroke="currentColor" stroke-width="1.5" d="M379 48.75h-8a2.25 2.25 0 0 0-2.25 2.25v8a2.25 2.25 0 0 0 2.25 2.25h8a2.25 2.25 0 0 0 2.25-2.25v-8a2.25 2.25 0 0 0-2.25-2.25Z" />
<path xmlns="http://www.w3.org/2000/svg" fill="currentColor" fill-rule="evenodd" d="M368 44.5h2c1.457 0 2.398.003 3.092.096.651.088.855.23.969.343s.255.319.342.97c.07.52.09 1.18.095 2.091h1.5c-.012-2.175-.108-3.353-.877-4.121C374.243 43 372.828 43 370 43h-2c-2.828 0-4.243 0-5.121.879C362 44.757 362 46.172 362 49v2c0 2.828 0 4.243.879 5.121.878.879 2.293.879 5.121.879v-1.5c-1.457 0-2.398-.003-3.092-.096-.651-.088-.854-.23-.969-.343s-.255-.318-.343-.97c-.093-.693-.096-1.634-.096-3.091v-2c0-1.457.003-2.398.096-3.092.088-.65.229-.855.343-.969s.318-.255.969-.343c.694-.093 1.635-.096 3.092-.096m40 1.252c-2.175.012-3.353.108-4.121.877-.879.878-.879 2.293-.879 5.121V56c0 2.828 0 4.243.879 5.121.878.879 2.293.879 5.121.879h1c2.828 0 4.243 0 5.121-.879.606-.606.794-1.467.853-2.871h-1.501a10 10 0 0 1-.07.842c-.087.65-.228.854-.342.969s-.318.255-.969.343c-.694.093-1.635.096-3.092.096h-1c-1.457 0-2.398-.003-3.092-.096-.651-.088-.854-.23-.969-.343-.114-.115-.255-.319-.343-.97-.093-.693-.096-1.634-.096-3.091v-4.25c0-1.457.003-2.398.096-3.092.088-.65.229-.855.343-.969s.318-.255.969-.343c.52-.07 1.18-.089 2.092-.094z" clip-rule="evenodd" />
<mask xmlns="http://www.w3.org/2000/svg" id="mask2_2_379" width="13" height="17" x="408" y="42" maskUnits="userSpaceOnUse" style="mask-type:alpha"><path fill="currentColor" fill-rule="evenodd" d="M417.317 43.172A4 4 0 0 0 414.489 42H411a3 3 0 0 0-3 3v10.25a3 3 0 0 0 3 3h7a3 3 0 0 0 3-3v-6.739c0-1.06-.421-2.078-1.172-2.828z" clip-rule="evenodd" /></mask>
<g xmlns="http://www.w3.org/2000/svg" mask="url(#mask2_2_379)"><path fill="currentColor" d="m417.317 43.172-1.061 1.06zM411 43.5h3.489v-3H411zm-1.5 1.5a1.5 1.5 0 0 1 1.5-1.5v-3a4.5 4.5 0 0 0-4.5 4.5zm0 10.25V45h-3v10.25zm1.5 1.5a1.5 1.5 0 0 1-1.5-1.5h-3a4.5 4.5 0 0 0 4.5 4.5zm7 0h-7v3h7zm1.5-1.5a1.5 1.5 0 0 1-1.5 1.5v3a4.5 4.5 0 0 0 4.5-4.5zm0-6.739v6.739h3v-6.739zm1.389-3.889-2.511-2.511-2.122 2.121 2.512 2.512zm1.611 3.89c0-1.46-.58-2.858-1.611-3.89l-2.121 2.122a2.5 2.5 0 0 1 .732 1.767zm-8.011-5.012c.663 0 1.298.263 1.767.732l2.122-2.121a5.5 5.5 0 0 0-3.889-1.611z" /></g>
<path xmlns="http://www.w3.org/2000/svg" stroke="currentColor" stroke-width="1.5" d="M455.25 46a3.25 3.25 0 1 1-6.5 0 3.25 3.25 0 0 1 6.5 0Zm3 11c0 1.076-.609 2.12-1.736 2.925-1.126.804-2.719 1.325-4.514 1.325s-3.388-.52-4.514-1.325-1.736-1.85-1.736-2.925c0-1.076.609-2.12 1.736-2.925 1.126-.804 2.719-1.325 4.514-1.325s3.388.52 4.514 1.325 1.736 1.85 1.736 2.925ZM497 42.75h-10a4.25 4.25 0 0 0-4.25 4.25v10a4.25 4.25 0 0 0 4.25 4.25h10a4.25 4.25 0 0 0 4.25-4.25V47a4.25 4.25 0 0 0-4.25-4.25Z" />
<path xmlns="http://www.w3.org/2000/svg" fill="currentColor" fill-rule="evenodd" d="M496.711 48.96a.75.75 0 0 0-.75-.75h-2.829a.75.75 0 0 0 0 1.5h1.018l-2.415 2.416-1.431-1.43a.75.75 0 0 0-1.061 0l-3.182 3.182a.75.75 0 0 0 1.061 1.06l2.652-2.651 1.43 1.43a.75.75 0 0 0 1.061 0l2.946-2.946v1.018a.75.75 0 0 0 1.5 0z" clip-rule="evenodd" />
<path xmlns="http://www.w3.org/2000/svg" stroke="currentColor" stroke-width="1.5" d="M537 42.75h-10a4.25 4.25 0 0 0-4.25 4.25v10a4.25 4.25 0 0 0 4.25 4.25h10a4.25 4.25 0 0 0 4.25-4.25V47a4.25 4.25 0 0 0-4.25-4.25Z" />
<path xmlns="http://www.w3.org/2000/svg" fill="currentColor" fill-rule="evenodd" d="M527.256 54.823c0 .414.336.75.75.75h2.828a.75.75 0 0 0 0-1.5h-1.017l2.415-2.416 1.431 1.43a.75.75 0 0 0 1.06 0l3.182-3.182a.75.75 0 1 0-1.06-1.06l-2.652 2.651-1.43-1.43a.75.75 0 0 0-1.061 0l-2.946 2.946v-1.018a.75.75 0 0 0-1.5 0z" clip-rule="evenodd" />
<path xmlns="http://www.w3.org/2000/svg" stroke="currentColor" stroke-width="1.5" d="M573.5 42.75h-3a1.75 1.75 0 0 0 0 3.5h3a1.75 1.75 0 0 0 0-3.5Z" />
<path xmlns="http://www.w3.org/2000/svg" fill="currentColor" d="M568.046 44.033q-.045.241-.046.496c0 .354.069.691.195 1-.532.018-.986.05-1.384.104-.923.124-1.318.339-1.579.6s-.475.655-.599 1.578c-.13.966-.133 2.261-.133 4.189v2c0 1.928.003 3.223.133 4.19.124.922.339 1.317.599 1.578.261.26.656.475 1.579.599.966.13 2.261.133 4.189.133h2c1.928 0 3.223-.003 4.189-.133.923-.124 1.318-.339 1.579-.6s.475-.655.599-1.578c.13-.966.133-2.261.133-4.189v-2c0-1.928-.003-3.223-.133-4.19-.124-.922-.339-1.317-.599-1.578-.261-.26-.656-.475-1.579-.599a14 14 0 0 0-1.384-.105 2.63 2.63 0 0 0 .148-1.495c1.9.076 3.061.324 3.875 1.139C581 46.343 581 48.229 581 52v2c0 3.771 0 5.657-1.172 6.828S576.771 62 573 62h-2c-3.771 0-5.657 0-6.828-1.172S563 57.771 563 54v-2c0-3.771 0-5.657 1.172-6.828.814-.815 1.975-1.063 3.874-1.139" />
<path xmlns="http://www.w3.org/2000/svg" stroke="currentColor" stroke-linecap="round" stroke-width="1.5" d="M572 51.054v5.087m2.543-2.544h-5.087z" />
<path xmlns="http://www.w3.org/2000/svg" stroke="currentColor" stroke-width="1.5" d="M613.5 42.75h-3a1.75 1.75 0 0 0 0 3.5h3a1.75 1.75 0 0 0 0-3.5Z" />
<path xmlns="http://www.w3.org/2000/svg" fill="currentColor" fill-rule="evenodd" d="M608.046 44.033q-.045.241-.046.496c0 .354.069.691.195 1-.532.018-.986.05-1.384.104-.923.124-1.318.339-1.579.6s-.475.655-.599 1.578c-.13.966-.133 2.261-.133 4.189v2c0 1.928.003 3.223.133 4.19.124.922.339 1.317.599 1.578.261.26.656.475 1.579.599.966.13 2.261.133 4.189.133h2c1.928 0 3.223-.003 4.189-.133.923-.124 1.318-.339 1.579-.6s.475-.655.599-1.578c.13-.966.133-2.261.133-4.189v-2c0-1.928-.003-3.223-.133-4.19-.124-.922-.339-1.317-.599-1.578-.261-.26-.656-.475-1.579-.599a14 14 0 0 0-1.384-.105 2.63 2.63 0 0 0 .148-1.495c1.9.076 3.061.324 3.875 1.139C621 46.343 621 48.229 621 52v2c0 3.771 0 5.657-1.172 6.828S616.771 62 613 62h-2c-3.771 0-5.657 0-6.828-1.172S603 57.771 603 54v-2c0-3.771 0-5.657 1.172-6.828.814-.815 1.975-1.063 3.874-1.139" clip-rule="evenodd" />
<path xmlns="http://www.w3.org/2000/svg" stroke="currentColor" stroke-linecap="round" stroke-linejoin="round" stroke-width="1.5" d="m610 53.5 1.5 1.5 3-3" />
<path xmlns="http://www.w3.org/2000/svg" stroke="currentColor" stroke-width="1.5" d="M653.5 42.75h-3a1.75 1.75 0 0 0 0 3.5h3a1.75 1.75 0 0 0 0-3.5Z" />
<path xmlns="http://www.w3.org/2000/svg" fill="currentColor" fill-rule="evenodd" d="M648.046 44.033q-.045.241-.046.496c0 .354.069.691.195 1-.532.018-.986.05-1.384.104-.923.124-1.318.339-1.579.6s-.475.655-.599 1.578c-.13.966-.133 2.261-.133 4.189v2c0 1.928.003 3.223.133 4.19.124.922.339 1.317.599 1.578.261.26.656.475 1.579.599.966.13 2.261.133 4.189.133h2c1.928 0 3.223-.003 4.189-.133.923-.124 1.318-.339 1.579-.6s.475-.655.599-1.578c.13-.966.133-2.261.133-4.189v-2c0-1.928-.003-3.223-.133-4.19-.124-.922-.339-1.317-.599-1.578-.261-.26-.656-.475-1.579-.599a14 14 0 0 0-1.384-.105 2.63 2.63 0 0 0 .148-1.495c1.9.076 3.061.324 3.875 1.139C661 46.343 661 48.229 661 52v2c0 3.771 0 5.657-1.172 6.828S656.771 62 653 62h-2c-3.771 0-5.657 0-6.828-1.172S643 57.771 643 54v-2c0-3.771 0-5.657 1.172-6.828.814-.815 1.975-1.063 3.874-1.139" clip-rule="evenodd" />
<path xmlns="http://www.w3.org/2000/svg" stroke="currentColor" stroke-linecap="round" stroke-width="1.5" d="m650.201 51.799 3.597 3.597m0-3.597-3.597 3.597z" />
<mask xmlns="http://www.w3.org/2000/svg" id="mask3_2_379" width="16" height="20" x="684" y="42" maskUnits="userSpaceOnUse" style="mask-type:alpha"><path fill="currentColor" fill-rule="evenodd" d="M694.891 42.866A2.93 2.93 0 0 0 692.83 42H692c-2.8 0-4.2 0-5.27.545a5 5 0 0 0-2.185 2.185C684 45.8 684 47.2 684 50v4c0 2.8 0 4.2.545 5.27a5 5 0 0 0 2.185 2.185C687.8 62 689.2 62 692 62s4.2 0 5.27-.545a5 5 0 0 0 2.185-2.185C700 58.2 700 56.8 700 54v-4l-.001-.83a2.92 2.92 0 0 0-.865-2.06z" clip-rule="evenodd" /></mask>
<g xmlns="http://www.w3.org/2000/svg" mask="url(#mask3_2_379)"><path fill="currentColor" d="m686.73 42.545.681 1.337zm-2.185 2.185 1.336.681zm0 14.54-1.337.68zm2.185 2.185.681-1.337zm10.54 0-.681-1.337zm2.185-2.185-1.336-.681zm-.321-12.16-1.06 1.06zM692 43.5h.826l.007-3H692zm-4.589.382c.288-.147.686-.258 1.427-.319.759-.062 1.737-.063 3.162-.063v-3c-1.375 0-2.497-.001-3.406.073-.927.076-1.763.237-2.545.636zm-1.53 1.529a3.5 3.5 0 0 1 1.53-1.53l-1.362-2.672a6.5 6.5 0 0 0-2.841 2.84zM685.5 50c0-1.425.001-2.403.063-3.162.061-.74.172-1.139.318-1.427l-2.673-1.362c-.398.782-.559 1.618-.635 2.545-.074.909-.073 2.03-.073 3.406zm0 4v-4h-3v4zm.381 4.589c-.146-.288-.257-.686-.318-1.427-.062-.759-.063-1.737-.063-3.162h-3c0 1.375-.001 2.497.073 3.406.076.927.237 1.764.635 2.545zm1.53 1.53a3.5 3.5 0 0 1-1.53-1.53l-2.673 1.362a6.5 6.5 0 0 0 2.841 2.84zM692 60.5c-1.425 0-2.403-.001-3.162-.063-.741-.06-1.139-.172-1.427-.319l-1.362 2.673c.782.399 1.618.56 2.545.636.909.074 2.031.073 3.406.073zm4.589-.382c-.288.147-.686.258-1.427.319-.759.062-1.737.063-3.162.063v3c1.375 0 2.497.001 3.406-.073.927-.076 1.764-.237 2.545-.636zm1.53-1.529a3.5 3.5 0 0 1-1.53 1.53l1.362 2.672a6.5 6.5 0 0 0 2.841-2.84zM698.5 54c0 1.425-.001 2.403-.063 3.162-.061.74-.172 1.139-.318 1.427l2.673 1.362c.398-.782.559-1.618.635-2.545.074-.909.073-2.03.073-3.406zm0-4v4h3v-4zm-.001-.826.001.826h3l-.001-.833zm1.696-3.125-4.244-4.244-2.121 2.121 4.244 4.244zm1.304 3.118a4.42 4.42 0 0 0-1.304-3.118l-2.121 2.12c.275.276.424.638.425 1.005zm-8.673-5.666c.367 0 .729.15 1.004.425l2.121-2.121a4.43 4.43 0 0 0-3.118-1.304z" /><path stroke="currentColor" stroke-width="1.5" d="M693.5 42.5v3a3 3 0 0 0 3 3h2.5" /></g>
<mask xmlns="http://www.w3.org/2000/svg" id="mask4_2_379" width="16" height="20" x="724" y="42" maskUnits="userSpaceOnUse" style="mask-type:alpha"><path fill="currentColor" fill-rule="evenodd" d="M735.49 43.465A5 5 0 0 0 731.954 42H729a5 5 0 0 0-5 5v10a5 5 0 0 0 5 5h6a5 5 0 0 0 5-5v-6.954a5 5 0 0 0-1.465-3.536z" clip-rule="evenodd" /></mask>
<g xmlns="http://www.w3.org/2000/svg" mask="url(#mask4_2_379)"><path fill="currentColor" d="m738.535 46.51 1.061-1.06zm-3.045-3.045-1.061 1.06zM729 43.5h2.954v-3H729zm-3.5 3.5a3.5 3.5 0 0 1 3.5-3.5v-3a6.5 6.5 0 0 0-6.5 6.5zm0 10V47h-3v10zm3.5 3.5a3.5 3.5 0 0 1-3.5-3.5h-3a6.5 6.5 0 0 0 6.5 6.5zm6 0h-6v3h6zm3.5-3.5a3.5 3.5 0 0 1-3.5 3.5v3a6.5 6.5 0 0 0 6.5-6.5zm0-6.954V57h3v-6.954zm1.096-4.596-3.046-3.046-2.121 2.121 3.046 3.046zm1.904 4.596a6.5 6.5 0 0 0-1.904-4.596l-2.121 2.121a3.5 3.5 0 0 1 1.025 2.475zm-9.546-6.546a3.5 3.5 0 0 1 2.475 1.025l2.121-2.121a6.5 6.5 0 0 0-4.596-1.904z" /><path stroke="currentColor" stroke-linecap="round" stroke-width="1.5" d="M730 54h4m-2-2v4z" /><path stroke="currentColor" stroke-width="1.5" d="M733.5 42.5v3a3 3 0 0 0 3 3h2.5" /></g>
<path xmlns="http://www.w3.org/2000/svg" stroke="currentColor" stroke-linecap="round" stroke-linejoin="round" stroke-width="1.5" d="m772 43.5 3 3m-3 8v-11zm0-11-3 3z" />
<path xmlns="http://www.w3.org/2000/svg" fill="currentColor" d="M776 59h-8c-.986 0-1.305-.005-1.548-.043a3.5 3.5 0 0 1-2.909-2.91c-.038-.242-.043-.56-.043-1.547s.005-1.305.043-1.547a3.5 3.5 0 0 1 2.909-2.91c.243-.038.562-.043 1.548-.043h.25a.75.75 0 0 0 0-1.5H768c-.929 0-1.394 0-1.782.062a5 5 0 0 0-4.156 4.156c-.062.388-.062.853-.062 1.782s0 1.394.062 1.782a5 5 0 0 0 4.156 4.156c.388.062.853.062 1.782.062h8c.929 0 1.393 0 1.782-.062a5 5 0 0 0 4.156-4.156c.062-.388.062-.853.062-1.782s0-1.394-.062-1.782a5 5 0 0 0-4.156-4.156c-.389-.062-.853-.062-1.782-.062h-.25a.75.75 0 0 0 0 1.5h.25c.986 0 1.305.005 1.548.043a3.5 3.5 0 0 1 2.909 2.91c.038.242.043.56.043 1.547s-.005 1.305-.043 1.547a3.5 3.5 0 0 1-2.909 2.91c-.243.038-.562.043-1.548.043" />
<path xmlns="http://www.w3.org/2000/svg" stroke="currentColor" stroke-linecap="round" stroke-linejoin="round" stroke-width="1.5" d="m812 55.5 3-3m-3-8v11zm0 11-3-3z" />
<path xmlns="http://www.w3.org/2000/svg" fill="currentColor" d="M816 59h-8c-.986 0-1.305-.005-1.548-.043a3.5 3.5 0 0 1-2.909-2.91c-.038-.242-.043-.56-.043-1.547s.005-1.305.043-1.547a3.5 3.5 0 0 1 2.909-2.91c.243-.038.562-.043 1.548-.043h.25a.75.75 0 0 0 0-1.5H808c-.929 0-1.394 0-1.782.062a5 5 0 0 0-4.156 4.156c-.062.388-.062.853-.062 1.782s0 1.394.062 1.782a5 5 0 0 0 4.156 4.156c.388.062.853.062 1.782.062h8c.929 0 1.393 0 1.782-.062a5 5 0 0 0 4.156-4.156c.062-.388.062-.853.062-1.782s0-1.394-.062-1.782a5 5 0 0 0-4.156-4.156c-.389-.062-.853-.062-1.782-.062h-.25a.75.75 0 0 0 0 1.5h.25c.986 0 1.305.005 1.548.043a3.5 3.5 0 0 1 2.909 2.91c.038.242.043.56.043 1.547s-.005 1.305-.043 1.547a3.5 3.5 0 0 1-2.909 2.91c-.243.038-.562.043-1.548.043" />
<path xmlns="http://www.w3.org/2000/svg" fill="currentColor" fill-rule="evenodd" d="M852 59.5c-1.908 0-3.219-.002-4.221-.11-.974-.106-1.477-.298-1.836-.558a3.5 3.5 0 0 1-.775-.775c-.26-.359-.452-.862-.557-1.836a13 13 0 0 1-.044-.498.77.77 0 0 0-.761-.723.734.734 0 0 0-.739.776c.096 1.425.327 2.39.888 3.163a5 5 0 0 0 1.106 1.106C846.375 61 848.25 61 852 61s5.625 0 6.939-.955a5 5 0 0 0 1.106-1.106c.561-.772.792-1.738.888-3.163a.734.734 0 0 0-.739-.776.77.77 0 0 0-.761.723q-.018.262-.044.498c-.105.974-.297 1.477-.557 1.836a3.5 3.5 0 0 1-.775.775c-.359.26-.862.452-1.836.557-1.002.109-2.313.111-4.221.111M843.806 49a.77.77 0 0 0 .761-.723q.018-.262.044-.498c.105-.974.297-1.477.557-1.836a3.5 3.5 0 0 1 .775-.775c.359-.26.862-.452 1.836-.557 1.002-.109 2.313-.111 4.221-.111s3.219.002 4.221.11c.974.106 1.477.298 1.836.558.297.216.559.478.775.775.26.359.452.862.557 1.836q.026.236.044.498a.77.77 0 0 0 .761.723.734.734 0 0 0 .739-.776c-.096-1.425-.327-2.39-.888-3.163a5 5 0 0 0-1.106-1.106C857.625 43 855.75 43 852 43s-5.625 0-6.939.955a5 5 0 0 0-1.106 1.106c-.561.772-.792 1.738-.888 3.163a.734.734 0 0 0 .739.776" clip-rule="evenodd" />
<path xmlns="http://www.w3.org/2000/svg" stroke="currentColor" stroke-linecap="round" stroke-width="1.5" d="M842.75 52.25h18.5" />
<path xmlns="http://www.w3.org/2000/svg" stroke="currentColor" stroke-linecap="round" stroke-linejoin="round" stroke-width="1.5" d="m886.437 45.958 9.079-3.026c4.073-1.358 6.294.862 4.936 4.935l-3.026 9.08c-2.037 6.109-5.367 6.102-7.397 0l-.608-1.839c-.156-.467-.672-.983-1.138-1.138l-1.846-.616c-6.102-2.029-6.102-5.367 0-7.396m2.616 8.372 3.819-3.818" />
<path xmlns="http://www.w3.org/2000/svg" stroke="currentColor" stroke-width="1.5" d="M57 86.75H47A4.25 4.25 0 0 0 42.75 91v6a4.25 4.25 0 0 0 4.25 4.25h10A4.25 4.25 0 0 0 61.25 97v-6A4.25 4.25 0 0 0 57 86.75Z" />
<path xmlns="http://www.w3.org/2000/svg" fill="currentColor" fill-rule="evenodd" d="M47.852 89c.538 0 .88-.633.75-1.155a3.5 3.5 0 1 1 6.795 0c-.13.522.214 1.155.751 1.155a.615.615 0 0 0 .593-.406 5 5 0 1 0-9.481 0c.084.25.327.406.592.406" clip-rule="evenodd" />
<path xmlns="http://www.w3.org/2000/svg" stroke="currentColor" stroke-width="1.5" d="M83.28 93.548c.112-1.798.193-3.073.382-4.038.184-.943.453-1.486.87-1.879.419-.392.977-.627 1.93-.752.975-.128 2.252-.129 4.054-.129h2.968c1.802 0 3.08.001 4.054.13.953.124 1.511.359 1.93.751.417.393.686.936.871 1.88.188.964.269 2.24.381 4.037.126 2.014.214 3.447.133 4.537-.08 1.07-.315 1.686-.742 2.14s-1.028.728-2.09.874c-1.083.149-2.519.151-4.537.151h-2.968c-2.018 0-3.454-.002-4.538-.151-1.061-.146-1.662-.419-2.089-.874-.427-.454-.662-1.07-.742-2.14-.081-1.09.007-2.523.133-4.537Z" />
<path xmlns="http://www.w3.org/2000/svg" fill="currentColor" fill-rule="evenodd" d="M87.852 89c.538 0 .88-.633.75-1.155a3.5 3.5 0 1 1 6.795 0c-.13.522.213 1.155.751 1.155a.615.615 0 0 0 .593-.406 5 5 0 1 0-9.481 0c.084.25.327.406.592.406" clip-rule="evenodd" />
<path xmlns="http://www.w3.org/2000/svg" stroke="currentColor" d="M88.5 93a.5.5 0 1 0 0-1 .5.5 0 0 0 0 1Zm7 0a.5.5 0 1 0 0-1 .5.5 0 0 0 0 1Z" />
<path xmlns="http://www.w3.org/2000/svg" stroke="currentColor" stroke-width="1.5" d="M129 98a1.5 1.5 0 1 1 0 3 1.5 1.5 0 0 1 0-3Zm7 0a1.5 1.5 0 1 1 0 3 1.5 1.5 0 0 1 0-3Zm-10.25-6c0-1.435.002-2.436.103-3.192.099-.734.279-1.122.556-1.399s.665-.457 1.399-.556c.755-.101 1.757-.103 3.192-.103h2.917c1.667 0 2.837.002 3.706.125.848.12 1.272.34 1.552.67.28.331.427.785.407 1.642-.022.878-.212 2.032-.486 3.676-.203 1.216-.345 2.06-.533 2.692-.182.612-.384.936-.65 1.162s-.619.37-1.253.45c-.654.082-1.51.083-2.743.083H131c-1.435 0-2.437-.002-3.192-.103-.734-.099-1.122-.28-1.399-.556-.277-.277-.457-.665-.556-1.4-.101-.755-.103-1.756-.103-3.191Z" />
<path xmlns="http://www.w3.org/2000/svg" stroke="currentColor" stroke-linecap="round" stroke-width="1.5" d="M125.75 91.5V85a2 2 0 0 0-2-2h-1.25m48.5 18h10" />
<path xmlns="http://www.w3.org/2000/svg" fill-rule="evenodd" stroke="currentColor" stroke-linecap="round" stroke-linejoin="round" stroke-width="1.5" d="M176.885 84.824a3.333 3.333 0 0 0-4.673.281L164.1 94.18c-2.091 2.337-.558 5.566-.558 5.566s3.452 1.083 5.512-1.222l8.115-9.074a3.257 3.257 0 0 0-.284-4.626" clip-rule="evenodd" />
<path xmlns="http://www.w3.org/2000/svg" stroke="currentColor" stroke-linecap="round" stroke-linejoin="round" stroke-width="1.5" d="m170.36 87.292 4.566 3.987" />
<path xmlns="http://www.w3.org/2000/svg" stroke="currentColor" stroke-miterlimit="10" stroke-width="1.5" d="M221 97.697c0 .324-.072.657-.225.981s-.352.63-.613.918c-.442.486-.929.837-1.478 1.062a4.5 4.5 0 0 1-1.758.342c-.92 0-1.902-.216-2.938-.657a15.8 15.8 0 0 1-3.101-1.782 26 26 0 0 1-2.957-2.52 25.6 25.6 0 0 1-2.514-2.943c-.739-1.026-1.334-2.052-1.767-3.069q-.65-1.539-.649-2.943c0-.612.108-1.197.324-1.737a4.15 4.15 0 0 1 1.037-1.503c.577-.567 1.208-.846 1.875-.846.252 0 .505.054.73.162.234.108.442.27.604.504l2.091 2.943c.162.225.279.432.36.63.082.189.127.378.127.549 0 .216-.063.432-.19.639a3 3 0 0 1-.504.639l-.685.711a.48.48 0 0 0-.145.36c0 .072.009.135.027.207.028.072.055.126.073.18.162.297.441.684.838 1.152.405.468.838.945 1.307 1.422.487.477.955.918 1.433 1.323.469.396.856.666 1.163.828.045.018.099.045.162.072a.6.6 0 0 0 .225.036.5.5 0 0 0 .37-.153l.685-.675c.225-.225.442-.396.649-.504.207-.126.415-.189.64-.189.171 0 .351.036.55.117.198.081.405.198.631.351l2.983 2.115c.234.162.397.351.496.576.09.225.144.45.144.702Z" />
<mask xmlns="http://www.w3.org/2000/svg" id="mask5_2_379" width="20" height="18" x="242" y="83" maskUnits="userSpaceOnUse" style="mask-type:alpha"><path fill="currentColor" fill-rule="evenodd" d="M257.844 86.108c.41.056.754.142 1.069.273a5 5 0 0 1 2.706 2.706c.381.918.381 2.083.381 4.413s0 3.495-.381 4.413a5 5 0 0 1-2.706 2.706c-.918.381-2.083.381-4.413.381h-5c-2.33 0-3.495 0-4.413-.381a5 5 0 0 1-2.706-2.706C242 96.995 242 95.83 242 93.5s0-3.495.381-4.413a5 5 0 0 1 2.706-2.706 4.3 4.3 0 0 1 1.069-.273c.329-1.157.58-1.818 1.066-2.28q.238-.226.518-.396c.715-.432 1.631-.432 3.461-.432h1.598c1.83 0 2.746 0 3.461.432q.28.17.518.395c.486.463.737 1.124 1.066 2.281" clip-rule="evenodd" /></mask>
<g xmlns="http://www.w3.org/2000/svg" mask="url(#mask5_2_379)"><path fill="currentColor" d="m257.844 86.108-1.442.41.268.943.97.133zm1.069.273.574-1.386zm2.706 2.706-1.385.574zm0 8.826-1.385-.574zm-2.706 2.706.574 1.386zm-13.826 0-.574 1.386zm-2.706-2.706 1.385-.574zm0-8.826-1.386-.574zm2.706-2.706.574 1.385zm1.069-.273.204 1.486.97-.133.268-.942zm1.066-2.28 1.035 1.086zm.518-.396.776 1.284zm8.52 0-.776 1.284zm.518.395 1.034-1.086zm.862 3.767c.318.044.531.103.699.172l1.148-2.771a5.8 5.8 0 0 0-1.439-.373zm.699.172a3.5 3.5 0 0 1 1.895 1.895l2.771-1.148a6.5 6.5 0 0 0-3.518-3.518zm1.895 1.895c.102.246.179.584.222 1.205.043.635.044 1.449.044 2.634h3c0-1.144.001-2.078-.051-2.838-.053-.774-.165-1.477-.444-2.15zm.266 3.839c0 1.185-.001 2-.044 2.634-.043.62-.12.96-.222 1.205l2.771 1.148c.279-.672.391-1.375.444-2.15.052-.76.051-1.693.051-2.837zm-.266 3.84a3.5 3.5 0 0 1-1.895 1.894l1.148 2.771a6.5 6.5 0 0 0 3.518-3.518zm-1.895 1.894c-.246.102-.584.18-1.205.222-.635.043-1.449.044-2.634.044v3c1.144 0 2.078.001 2.838-.051.773-.053 1.477-.165 2.149-.444zm-3.839.266h-5v3h5zm-5 0c-1.185 0-1.999 0-2.634-.044-.621-.043-.959-.12-1.205-.222l-1.148 2.771c.672.279 1.375.391 2.149.444.76.052 1.694.051 2.838.051zm-3.839-.266a3.5 3.5 0 0 1-1.895-1.895l-2.771 1.148a6.5 6.5 0 0 0 3.518 3.518zm-1.895-1.895c-.102-.246-.18-.584-.222-1.205-.043-.635-.044-1.449-.044-2.634h-3c0 1.144-.001 2.078.051 2.838.053.774.165 1.477.444 2.15zM243.5 93.5c0-1.185.001-2 .044-2.634.042-.62.12-.96.222-1.205l-2.771-1.148c-.279.672-.391 1.375-.444 2.15-.052.76-.051 1.693-.051 2.837zm.266-3.84a3.5 3.5 0 0 1 1.895-1.894l-1.148-2.771a6.5 6.5 0 0 0-3.518 3.518zm1.895-1.894a2.8 2.8 0 0 1 .699-.172l-.408-2.972a5.7 5.7 0 0 0-1.439.373zm1.937-1.247c.341-1.198.509-1.462.659-1.605l-2.069-2.173c-.822.783-1.157 1.84-1.475 2.956zm.659-1.605q.118-.113.259-.198l-1.552-2.567a4.5 4.5 0 0 0-.776.592zm.259-.198c.094-.057.257-.127.684-.17.456-.044 1.056-.046 2.001-.046v-3c-.886 0-1.658-.002-2.296.061-.668.066-1.32.212-1.941.588zm2.685-.216h1.598v-3h-1.598zm1.598 0c.945 0 1.545.002 2.001.047.427.042.59.112.684.17l1.552-2.568c-.621-.376-1.273-.522-1.941-.588-.638-.063-1.41-.061-2.296-.061zm2.685.216q.14.085.259.198l2.069-2.173a4.5 4.5 0 0 0-.776-.592zm.259.198c.15.143.318.407.659 1.605l2.885-.822c-.318-1.116-.653-2.173-1.475-2.956z" /><path stroke="currentColor" stroke-width="1.5" d="M255.25 93a3.25 3.25 0 1 0-6.5 0 3.25 3.25 0 0 0 6.5 0Z" /></g>
<path xmlns="http://www.w3.org/2000/svg" stroke="currentColor" stroke-width="1.5" d="M296.25 87a4.25 4.25 0 0 0-8.5 0v4a4.25 4.25 0 0 0 8.5 0z" />
<path xmlns="http://www.w3.org/2000/svg" stroke="currentColor" stroke-linecap="round" stroke-width="1.5" d="M292 98.75v2.5" />
<path xmlns="http://www.w3.org/2000/svg" fill="currentColor" fill-rule="evenodd" d="M284.75 91c-.414 0-.754.337-.715.75a8 8 0 0 0 15.93 0c.039-.413-.301-.75-.715-.75s-.745.337-.793.749a6.5 6.5 0 0 1-12.914 0c-.047-.412-.379-.749-.793-.749" clip-rule="evenodd" />
<path xmlns="http://www.w3.org/2000/svg" stroke="currentColor" stroke-linecap="round" stroke-width="1.5" d="M290.75 90.25h2.5m-2.5-3h1.5" />
<path xmlns="http://www.w3.org/2000/svg" stroke="currentColor" stroke-linecap="round" stroke-linejoin="round" stroke-width="1.5" d="M327 93.86v-3.344c0-3.306 0-4.959 1.06-5.523s2.432.359 5.174 2.206l2.602 1.752c2.325 1.566 3.488 2.349 3.464 3.44-.023 1.093-1.219 1.825-3.61 3.289l-2.601 1.592c-2.696 1.65-4.044 2.476-5.067 1.903C327 98.602 327 97.022 327 93.861" />
<path xmlns="http://www.w3.org/2000/svg" stroke="currentColor" stroke-width="1.5" d="M368 83.75h-1a2.25 2.25 0 0 0-2.25 2.25v12a2.25 2.25 0 0 0 2.25 2.25h1a2.25 2.25 0 0 0 2.25-2.25V86a2.25 2.25 0 0 0-2.25-2.25Zm9 0h-1a2.25 2.25 0 0 0-2.25 2.25v12a2.25 2.25 0 0 0 2.25 2.25h1a2.25 2.25 0 0 0 2.25-2.25V86a2.25 2.25 0 0 0-2.25-2.25ZM406 94a2 2 0 1 0 0-4 2 2 0 0 0 0 4Zm11-7a2 2 0 1 0 0-4 2 2 0 0 0 0 4Zm-9.375 3.593 7.349-4.243M417 97a2 2 0 1 1 0 4 2 2 0 0 1 0-4Zm-9.375-3.35 7.348 4.242M459 89.75h-1a2.25 2.25 0 1 0 0 4.5h1a2.25 2.25 0 1 0 0-4.5Z" />
<path xmlns="http://www.w3.org/2000/svg" fill="currentColor" d="M450 85.5h3c1.928 0 3.223.003 4.189.133.923.124 1.318.339 1.579.6s.475.655.599 1.578c.079.586.111 1.293.124 2.189h1.5c-.036-2.48-.22-3.885-1.163-4.828C458.657 84 456.771 84 453 84h-3c-3.771 0-5.657 0-6.828 1.172S442 88.229 442 92s0 5.657 1.172 6.828S446.229 100 450 100h3c3.771 0 5.657 0 6.828-1.172.943-.943 1.127-2.348 1.163-4.828h-1.5c-.013.896-.045 1.603-.124 2.19-.124.922-.339 1.317-.599 1.578-.261.26-.656.475-1.579.599-.966.13-2.261.133-4.189.133h-3c-1.928 0-3.223-.003-4.189-.133-.923-.124-1.318-.339-1.579-.6s-.475-.655-.599-1.578c-.13-.966-.133-2.261-.133-4.189s.003-3.223.133-4.19c.124-.922.339-1.317.599-1.578.261-.26.656-.475 1.579-.599.966-.13 2.261-.133 4.189-.133" />
<path xmlns="http://www.w3.org/2000/svg" stroke="currentColor" stroke-linecap="round" stroke-width="1.5" d="M446.75 89.25h5.5" />
<path xmlns="http://www.w3.org/2000/svg" stroke="currentColor" stroke-linecap="round" stroke-linejoin="round" stroke-width="1.5" d="m765 171.881 4.219 5.378M780 171.881h-15zm-15 0 4.219-4.881zm55 0-4.219 5.378M805 171.881h15zm15 0L815.781 167zM854.5 164l-7.5 7.5 7.5 7.5m34.5-15 7.5 7.5-7.5 7.5" />
<path xmlns="http://www.w3.org/2000/svg" stroke="currentColor" stroke-width="1.5" d="M482.75 91a8.25 8.25 0 1 1 16.5 0 8.25 8.25 0 0 1-16.5 0Zm16 9a1.25 1.25 0 1 1 2.5 0 1.25 1.25 0 0 1-2.5 0ZM537 82.75h-10a4.25 4.25 0 0 0-4.25 4.25v10a4.25 4.25 0 0 0 4.25 4.25h10a4.25 4.25 0 0 0 4.25-4.25V87a4.25 4.25 0 0 0-4.25-4.25Z" />
<path xmlns="http://www.w3.org/2000/svg" stroke="currentColor" stroke-linecap="round" stroke-linejoin="round" stroke-width="1.5" d="M532 87.5V92l3 3" />
<path xmlns="http://www.w3.org/2000/svg" stroke="currentColor" stroke-width="1.5" d="M581.25 92a9.25 9.25 0 0 0-9.25-9.25 9.25 9.25 0 0 0-9.25 9.25 9.25 9.25 0 0 0 9.25 9.25 9.25 9.25 0 0 0 9.25-9.25Z" />
<path xmlns="http://www.w3.org/2000/svg" stroke="currentColor" stroke-linecap="round" stroke-linejoin="round" stroke-width="1.5" d="M572 87.5V92l3 3" />
<path xmlns="http://www.w3.org/2000/svg" stroke="currentColor" stroke-width="1.5" d="M614 84.75h-8a3.25 3.25 0 0 0-3.25 3.25v8a3.25 3.25 0 0 0 3.25 3.25h8a3.25 3.25 0 0 0 3.25-3.25v-8a3.25 3.25 0 0 0-3.25-3.25Z" />
<path xmlns="http://www.w3.org/2000/svg" stroke="currentColor" stroke-width="1.5" d="M614.25 89.5a1.75 1.75 0 1 0-3.5 0 1.75 1.75 0 0 0 3.5 0Zm3.5.541c0-.408.199-.79.533-1.024l1-.7a1.25 1.25 0 0 1 1.967 1.024v5.318a1.25 1.25 0 0 1-1.967 1.024l-1-.7a1.25 1.25 0 0 1-.533-1.024zM649 86.75h-1c-.69 0-1.25.56-1.25 1.25v1c0 .69.56 1.25 1.25 1.25h1c.69 0 1.25-.56 1.25-1.25v-1c0-.69-.56-1.25-1.25-1.25Zm7 0h-1c-.69 0-1.25.56-1.25 1.25v1c0 .69.56 1.25 1.25 1.25h1c.69 0 1.25-.56 1.25-1.25v-1c0-.69-.56-1.25-1.25-1.25Zm0 7h-1c-.69 0-1.25.56-1.25 1.25v1c0 .69.56 1.25 1.25 1.25h1c.69 0 1.25-.56 1.25-1.25v-1c0-.69-.56-1.25-1.25-1.25Zm-7 0h-1c-.69 0-1.25.56-1.25 1.25v1c0 .69.56 1.25 1.25 1.25h1c.69 0 1.25-.56 1.25-1.25v-1c0-.69-.56-1.25-1.25-1.25Z" />
<path xmlns="http://www.w3.org/2000/svg" fill="currentColor" d="M643.465 83.464c1.27-1.27 3.213-1.438 6.783-1.46a.75.75 0 0 1 .752.748.753.753 0 0 1-.749.752c-1.492.009-2.626.043-3.537.166-1.196.16-1.782.448-2.189.855s-.695.993-.855 2.188c-.123.912-.157 2.046-.166 3.538a.753.753 0 0 1-.752.749.75.75 0 0 1-.749-.752c.023-3.57.191-5.513 1.462-6.784M642.752 93a.75.75 0 0 0-.749.752c.023 3.57.191 5.513 1.462 6.783s3.213 1.439 6.783 1.462a.75.75 0 0 0 .752-.749.753.753 0 0 0-.749-.752c-1.492-.009-2.626-.043-3.537-.166-1.196-.16-1.782-.448-2.189-.855s-.695-.993-.855-2.188c-.123-.912-.157-2.046-.166-3.538a.753.753 0 0 0-.752-.749m18.496 0a.753.753 0 0 0-.752.749c-.009 1.492-.043 2.626-.166 3.538-.16 1.195-.448 1.78-.855 2.188-.407.407-.993.695-2.188.855-.912.123-2.046.157-3.538.166a.753.753 0 0 0-.749.752c0 .415.337.751.752.749 3.571-.023 5.513-.191 6.784-1.462s1.438-3.213 1.461-6.783a.75.75 0 0 0-.749-.752m0-2a.75.75 0 0 0 .749-.752c-.023-3.57-.191-5.513-1.461-6.784s-3.213-1.438-6.784-1.46a.75.75 0 0 0-.752.748c0 .414.335.749.749.752 1.492.009 2.626.043 3.538.166 1.195.16 1.781.448 2.188.855s.695.993.855 2.188c.123.912.157 2.046.166 3.538a.753.753 0 0 0 .752.749" />
<path xmlns="http://www.w3.org/2000/svg" stroke="currentColor" stroke-width="1.5" d="M701.25 92a9.25 9.25 0 0 0-9.25-9.25 9.25 9.25 0 0 0-9.25 9.25 9.25 9.25 0 0 0 9.25 9.25 9.25 9.25 0 0 0 9.25-9.25Z" />
<path xmlns="http://www.w3.org/2000/svg" stroke="currentColor" stroke-width="1.5" d="m690.771 90.129 2.725-.885a1 1 0 0 1 1.26 1.26l-.885 2.725a1 1 0 0 1-.642.642l-2.726.885a1 1 0 0 1-1.26-1.26l.885-2.725a1 1 0 0 1 .643-.642Z" />
<path xmlns="http://www.w3.org/2000/svg" stroke="currentColor" stroke-linecap="round" stroke-linejoin="round" stroke-miterlimit="10" stroke-width="1.5" d="m722.9 87.76.88-1.525c.52-.9 1.686-1.22 2.596-.695 1.567.905 2.848.166 2.845-1.648a1.9 1.9 0 0 1 1.901-1.893l1.993.007c.92-.012 1.663.74 1.675 1.66v.22c-.005 1.81 1.276 2.55 2.849 1.645l.191-.11c.802-.45 1.825-.182 2.274.62l1.004 1.723a1.9 1.9 0 0 1-.689 2.593c-1.573.904-1.573 2.383-.005 3.288a1.905 1.905 0 0 1 .696 2.595l-.881 1.525c-.52.9-1.686 1.22-2.595.695-1.568-.905-2.848-.166-2.845 1.648a1.897 1.897 0 0 1-1.902 1.893l-1.993-.007c-.919.012-1.662-.741-1.674-1.66l-.001-.22c.006-1.81-1.276-2.55-2.849-1.645l-.19.11c-.802.45-1.825.182-2.275-.62l-1.003-1.723a1.9 1.9 0 0 1 .689-2.593c1.573-.904 1.572-2.383.005-3.288a1.905 1.905 0 0 1-.696-2.595" />
<path xmlns="http://www.w3.org/2000/svg" stroke="currentColor" stroke-width="1.5" d="M735.25 92a3.25 3.25 0 1 0-6.5 0 3.25 3.25 0 0 0 6.5 0Z" />
<mask xmlns="http://www.w3.org/2000/svg" id="mask6_2_379" width="20" height="17" x="42" y="123" maskUnits="userSpaceOnUse" style="mask-type:alpha"><path fill="currentColor" fill-rule="evenodd" d="M53.1 124.5a2.87 2.87 0 0 0-2.521-1.5H45a3 3 0 0 0-3 3v8c0 2.828 0 4.243.879 5.121.878.879 2.293.879 5.121.879h8c2.828 0 4.243 0 5.121-.879.879-.878.879-2.293.879-5.121v-2.931c0-1.935 0-2.902-.43-3.616a3 3 0 0 0-1.023-1.023c-.714-.43-1.681-.43-3.616-.43h-1.31a2.87 2.87 0 0 1-2.521-1.5" clip-rule="evenodd" /></mask>
<g xmlns="http://www.w3.org/2000/svg" mask="url(#mask6_2_379)"><path fill="currentColor" d="m42.879 139.121 1.06-1.06zm18.691-11.668-1.285.774zm-1.023-1.023-.773 1.285zm.574 12.691-1.06-1.06zM45 124.5h5.579v-3H45zm-1.5 3.5v-2h-3v2zm0 6v-6h-3v6zm12.5 4.5h-8v3h8zm4.5-7.431V134h3v-2.931zm-4.879-3.569h1.31v-3h-1.31zm0-3a1.37 1.37 0 0 1-1.203-.716l-2.636 1.432a4.37 4.37 0 0 0 3.84 2.284zM40.5 134c0 1.372-.003 2.552.123 3.492.132.983.43 1.925 1.195 2.69l2.121-2.121c-.114-.115-.255-.318-.343-.969-.093-.694-.096-1.635-.096-3.092zm7.5 4.5c-1.457 0-2.398-.003-3.092-.097-.65-.087-.855-.228-.969-.342l-2.121 2.121c.765.764 1.707 1.063 2.69 1.195.94.126 2.12.123 3.492.123zm15.5-7.431c0-.939.002-1.746-.06-2.406-.064-.681-.206-1.354-.584-1.983l-2.57 1.547c.05.084.123.251.167.716.045.487.047 1.13.047 2.126zm-6.57-3.569c.997 0 1.64.002 2.127.047.465.044.632.117.716.168l1.547-2.571c-.63-.378-1.302-.52-1.983-.584-.66-.062-1.468-.06-2.406-.06zm5.926-.82a4.5 4.5 0 0 0-1.535-1.536l-1.547 2.571c.21.126.385.302.511.512zm-12.277-2.18c.502 0 .963.275 1.203.716l2.636-1.432a4.37 4.37 0 0 0-3.84-2.284zm5.421 17c1.372 0 2.552.003 3.492-.123.983-.132 1.925-.431 2.69-1.195l-2.121-2.121c-.114.114-.318.255-.97.342-.693.094-1.634.097-3.091.097zm4.5-7.5c0 1.457-.003 2.398-.096 3.092-.088.651-.23.854-.343.969l2.121 2.121c.764-.765 1.063-1.707 1.195-2.69.126-.94.123-2.12.123-3.492zM45 121.5a4.5 4.5 0 0 0-4.5 4.5h3a1.5 1.5 0 0 1 1.5-1.5z" /><path stroke="currentColor" stroke-linecap="round" stroke-width="1.5" d="M48.75 134.25h6.5" /></g>
<path xmlns="http://www.w3.org/2000/svg" fill="currentColor" fill-rule="evenodd" d="M91 123.75a7.25 7.25 0 0 0-5.576 11.884.75.75 0 0 1 .139.707l-.739 2.33 3.004-.946a.75.75 0 0 1 .502.018 7.2 7.2 0 0 0 2.67.507h2a7.25 7.25 0 0 0 0-14.5zM82.25 131a8.75 8.75 0 0 1 8.75-8.75h2a8.75 8.75 0 0 1 0 17.5h-2a8.7 8.7 0 0 1-2.969-.517l-3.215 1.013a1.25 1.25 0 0 1-1.567-1.57l.49.155-.49-.155.764-2.408A8.7 8.7 0 0 1 82.25 131m48.75-7.25a7.25 7.25 0 0 0-5.576 11.884.75.75 0 0 1 .139.707l-.738 2.33 3.003-.946a.75.75 0 0 1 .502.018 7.2 7.2 0 0 0 2.67.507h2a7.25 7.25 0 0 0 0-14.5zm-8.75 7.25a8.75 8.75 0 0 1 8.75-8.75h2a8.75 8.75 0 1 1 0 17.5h-2a8.7 8.7 0 0 1-2.969-.517l-3.215 1.013a1.25 1.25 0 0 1-1.567-1.57l.489.155-.489-.155.764-2.408A8.7 8.7 0 0 1 122.25 131" clip-rule="evenodd" />
<path xmlns="http://www.w3.org/2000/svg" fill="currentColor" d="M128.5 132a1 1 0 1 0 0-2 1 1 0 0 0 0 2m3.5 0a1 1 0 1 0 0-2 1 1 0 0 0 0 2m3.5 0a1 1 0 1 0 0-2 1 1 0 0 0 0 2" />
<path xmlns="http://www.w3.org/2000/svg" stroke="currentColor" stroke-linejoin="round" stroke-width="1.5" d="M163 132a9 9 0 0 1 9-9 9 9 0 0 1 9 9 9 9 0 0 1-9 9h-9z" />
<path xmlns="http://www.w3.org/2000/svg" fill="currentColor" d="M168 133a1 1 0 1 0 0-2 1 1 0 0 0 0 2m4 0a1 1 0 1 0 0-2 1 1 0 0 0 0 2m4 0a1 1 0 1 0 0-2 1 1 0 0 0 0 2" />
<path xmlns="http://www.w3.org/2000/svg" stroke="currentColor" stroke-linejoin="round" stroke-width="1.5" d="M203 132a9 9 0 0 1 9-9 9 9 0 0 1 9 9 9 9 0 0 1-9 9h-9z" />
<path xmlns="http://www.w3.org/2000/svg" stroke="currentColor" stroke-linecap="round" stroke-width="1.5" d="M207.75 134.25h5.5m-5.5-4h8.5" />
<path xmlns="http://www.w3.org/2000/svg" stroke="currentColor" stroke-linejoin="round" stroke-width="1.5" d="M243 132c0-3.75 0-5.625.955-6.939a5 5 0 0 1 1.106-1.106C246.375 123 248.25 123 252 123s5.625 0 6.939.955c.424.308.798.682 1.106 1.106.955 1.314.955 3.189.955 6.939s0 5.625-.955 6.939a5 5 0 0 1-1.106 1.106c-1.314.955-3.189.955-6.939.955h-9z" />
<path xmlns="http://www.w3.org/2000/svg" fill="currentColor" d="M248 133a1 1 0 1 0 0-2 1 1 0 0 0 0 2m4 0a1 1 0 1 0 0-2 1 1 0 0 0 0 2m4 0a1 1 0 1 0 0-2 1 1 0 0 0 0 2" />
<path xmlns="http://www.w3.org/2000/svg" stroke="currentColor" stroke-linejoin="round" stroke-width="1.5" d="M283 132c0-3.75 0-5.625.955-6.939a5 5 0 0 1 1.106-1.106C286.375 123 288.25 123 292 123s5.625 0 6.939.955c.424.308.798.682 1.106 1.106.955 1.314.955 3.189.955 6.939s0 5.625-.955 6.939a5 5 0 0 1-1.106 1.106c-1.314.955-3.189.955-6.939.955h-9z" />
<path xmlns="http://www.w3.org/2000/svg" stroke="currentColor" stroke-linecap="round" stroke-width="1.5" d="M288.75 132.25h6.5" />
<path xmlns="http://www.w3.org/2000/svg" stroke="currentColor" stroke-linejoin="round" stroke-width="1.5" d="M323 132c0-3.75 0-5.625.955-6.939a5 5 0 0 1 1.106-1.106C326.375 123 328.25 123 332 123s5.625 0 6.939.955c.424.308.798.682 1.106 1.106.955 1.314.955 3.189.955 6.939s0 5.625-.955 6.939a5 5 0 0 1-1.106 1.106c-1.314.955-3.189.955-6.939.955h-9z" />
<path xmlns="http://www.w3.org/2000/svg" stroke="currentColor" stroke-linecap="round" stroke-width="1.5" d="M327.75 134.25h5.5m-5.5-4h8.5" />
<path xmlns="http://www.w3.org/2000/svg" stroke="currentColor" stroke-width="1.5" d="M770.25 86.5a3.75 3.75 0 1 0-7.5 0 3.75 3.75 0 0 0 7.5 0Zm11 0a3.75 3.75 0 1 0-7.5 0 3.75 3.75 0 0 0 7.5 0Zm0 11a3.75 3.75 0 1 0-7.5 0 3.75 3.75 0 0 0 7.5 0Zm-11 0a3.75 3.75 0 1 0-7.5 0 3.75 3.75 0 0 0 7.5 0ZM808 82.75h-3a2.25 2.25 0 0 0-2.25 2.25v3a2.25 2.25 0 0 0 2.25 2.25h3a2.25 2.25 0 0 0 2.25-2.25v-3a2.25 2.25 0 0 0-2.25-2.25Zm11 0h-3a2.25 2.25 0 0 0-2.25 2.25v3a2.25 2.25 0 0 0 2.25 2.25h3a2.25 2.25 0 0 0 2.25-2.25v-3a2.25 2.25 0 0 0-2.25-2.25Zm0 11h-3a2.25 2.25 0 0 0-2.25 2.25v3a2.25 2.25 0 0 0 2.25 2.25h3a2.25 2.25 0 0 0 2.25-2.25v-3a2.25 2.25 0 0 0-2.25-2.25Zm-11 0h-3a2.25 2.25 0 0 0-2.25 2.25v3a2.25 2.25 0 0 0 2.25 2.25h3a2.25 2.25 0 0 0 2.25-2.25v-3a2.25 2.25 0 0 0-2.25-2.25Zm51-11h-14a2.25 2.25 0 0 0-2.25 2.25v3a2.25 2.25 0 0 0 2.25 2.25h14a2.25 2.25 0 0 0 2.25-2.25v-3a2.25 2.25 0 0 0-2.25-2.25Zm0 11h-3a2.25 2.25 0 0 0-2.25 2.25v3a2.25 2.25 0 0 0 2.25 2.25h3a2.25 2.25 0 0 0 2.25-2.25v-3a2.25 2.25 0 0 0-2.25-2.25Zm-11 0h-3a2.25 2.25 0 0 0-2.25 2.25v3a2.25 2.25 0 0 0 2.25 2.25h3a2.25 2.25 0 0 0 2.25-2.25v-3a2.25 2.25 0 0 0-2.25-2.25Zm40-11h-3a2.25 2.25 0 0 0-2.25 2.25v14a2.25 2.25 0 0 0 2.25 2.25h3a2.25 2.25 0 0 0 2.25-2.25V85a2.25 2.25 0 0 0-2.25-2.25Zm11 0h-3a2.25 2.25 0 0 0-2.25 2.25v3a2.25 2.25 0 0 0 2.25 2.25h3a2.25 2.25 0 0 0 2.25-2.25v-3a2.25 2.25 0 0 0-2.25-2.25Zm0 11h-3a2.25 2.25 0 0 0-2.25 2.25v3a2.25 2.25 0 0 0 2.25 2.25h3a2.25 2.25 0 0 0 2.25-2.25v-3a2.25 2.25 0 0 0-2.25-2.25Z" />
<path xmlns="http://www.w3.org/2000/svg" fill="currentColor" d="M376 142.75h-8c-5.75 0-5.75-3.05-5.75-5.75v-1c0-2.23 0-4.75 4.75-4.75 1.19 0 1.63.29 2.25.75.03.03.07.05.1.09l1.02 1.08c.86.91 2.42.91 3.28 0l1.02-1.08c.03-.03.06-.06.1-.09.62-.47 1.06-.75 2.25-.75 4.75 0 4.75 2.52 4.75 4.75v1c-.02 3.82-1.95 5.75-5.77 5.75m-9-10c-3.25 0-3.25 1.02-3.25 3.25v1c0 2.74 0 4.25 4.25 4.25h8c2.98 0 4.25-1.27 4.25-4.25v-1c0-2.23 0-3.25-3.25-3.25-.72 0-.87.09-1.3.41l-.97 1.03a3.73 3.73 0 0 1-2.73 1.18 3.73 3.73 0 0 1-2.73-1.18l-.97-1.03c-.43-.32-.58-.41-1.3-.41" />
<path xmlns="http://www.w3.org/2000/svg" fill="currentColor" d="M379 132.75c-.41 0-.75-.34-.75-.75v-6c0-2.23 0-3.25-3.25-3.25h-6c-3.25 0-3.25 1.02-3.25 3.25v6c0 .41-.34.75-.75.75s-.75-.34-.75-.75v-6c0-2.23 0-4.75 4.75-4.75h6c4.75 0 4.75 2.52 4.75 4.75v6c0 .41-.34.75-.75.75" />
<path xmlns="http://www.w3.org/2000/svg" fill="currentColor" d="M373.88 129.98h-3.33c-.41 0-.75-.34-.75-.75s.34-.75.75-.75h3.33a.749.749 0 1 1 0 1.5m.84-3h-5c-.41 0-.75-.34-.75-.75s.34-.75.75-.75h5a.749.749 0 1 1 0 1.5" />
<path xmlns="http://www.w3.org/2000/svg" stroke="currentColor" stroke-width="1.5" d="M417 122.75h-10a4.25 4.25 0 0 0-4.25 4.25v10a4.25 4.25 0 0 0 4.25 4.25h10a4.25 4.25 0 0 0 4.25-4.25v-10a4.25 4.25 0 0 0-4.25-4.25Z" />
<mask xmlns="http://www.w3.org/2000/svg" id="mask7_2_379" width="20" height="10" x="402" y="132" maskUnits="userSpaceOnUse" style="mask-type:alpha"><path fill="currentColor" fill-rule="evenodd" d="M409.625 133.5a1.98 1.98 0 0 0-1.921-1.5H406c-1.933 0-2.9 0-3.491.621-.591.622-.546 1.541-.454 3.379.109 2.194.436 3.562 1.409 4.535C404.929 142 407.286 142 412 142s7.071 0 8.535-1.465c.974-.973 1.3-2.341 1.41-4.535.092-1.838.137-2.757-.454-3.379S419.933 132 418 132h-1.704c-.909 0-1.701.618-1.921 1.5a1.98 1.98 0 0 1-1.921 1.5h-.908a1.98 1.98 0 0 1-1.921-1.5" clip-rule="evenodd" /></mask>
<g xmlns="http://www.w3.org/2000/svg" mask="url(#mask7_2_379)"><path fill="currentColor" d="m421.945 136-1.499-.074zm-19.436-3.379-1.087-1.033zm3.491.879h1.704v-3H406zm-1.475 5.975c-.546-.546-.865-1.398-.972-3.549l-2.996.149c.111 2.236.445 4.12 1.846 5.521zM412 140.5c-2.4 0-4.048-.003-5.287-.17-1.195-.16-1.781-.448-2.188-.855l-2.122 2.121c1.058 1.058 2.383 1.502 3.91 1.708 1.485.199 3.372.196 5.687.196zm7.475-1.025c-.408.407-.994.695-2.189.855-1.238.167-2.887.17-5.286.17v3c2.314 0 4.201.003 5.686-.196 1.528-.206 2.852-.65 3.91-1.708zm.971-3.549c-.107 2.151-.426 3.003-.971 3.549l2.121 2.121c1.402-1.401 1.735-3.285 1.847-5.521zm-4.15-2.426H418v-3h-1.704zm-3.842 0h-.908v3h.908zm-.908 0a.48.48 0 0 1-.466-.364l-2.911.728a3.48 3.48 0 0 0 3.377 2.636zm1.373-.364a.48.48 0 0 1-.465.364v3a3.48 3.48 0 0 0 3.376-2.636zm3.377-2.636a3.48 3.48 0 0 0-3.377 2.636l2.911.728a.48.48 0 0 1 .466-.364zm-8.592 3c.22 0 .412.15.465.364l2.911-.728a3.48 3.48 0 0 0-3.376-2.636zm15.739 2.575c.043-.874.088-1.691.024-2.362-.069-.73-.28-1.485-.889-2.125l-2.174 2.067c.005.006.009.009.019.034.014.037.04.125.057.307.039.404.015.965-.034 1.93zM418 133.5c1.01 0 1.612.003 2.041.063.197.028.294.06.336.078l.02.009.005.004v-.001l.002.002 2.174-2.067c-.621-.653-1.39-.894-2.122-.996-.685-.095-1.534-.092-2.456-.092zm-12-3c-.923 0-1.771-.003-2.456.092-.733.102-1.501.343-2.122.996l2.173 2.067.002-.002v.001l.005-.004.02-.009c.043-.018.14-.05.336-.078.43-.06 1.031-.063 2.042-.063zm-2.447 5.426c-.048-.965-.072-1.526-.034-1.93.017-.182.043-.27.057-.307.01-.025.014-.028.019-.034l-2.173-2.067c-.61.64-.82 1.395-.89 2.125-.063.671-.019 1.488.025 2.362z" /></g>
<path xmlns="http://www.w3.org/2000/svg" stroke="currentColor" stroke-width="1.5" d="M457 122.75h-10a4.25 4.25 0 0 0-4.25 4.25v10a4.25 4.25 0 0 0 4.25 4.25h10a4.25 4.25 0 0 0 4.25-4.25v-10a4.25 4.25 0 0 0-4.25-4.25Z" />
<mask xmlns="http://www.w3.org/2000/svg" id="mask8_2_379" width="20" height="10" x="442" y="132" maskUnits="userSpaceOnUse" style="mask-type:alpha"><path fill="currentColor" fill-rule="evenodd" d="M449.625 133.5a1.98 1.98 0 0 0-1.921-1.5H446c-1.933 0-2.9 0-3.491.621-.591.622-.546 1.541-.454 3.379.109 2.194.436 3.562 1.409 4.535C444.929 142 447.286 142 452 142s7.071 0 8.535-1.465c.974-.973 1.3-2.341 1.41-4.535.091-1.838.137-2.757-.454-3.379S459.933 132 458 132h-1.704c-.909 0-1.701.618-1.921 1.5a1.98 1.98 0 0 1-1.921 1.5h-.908a1.98 1.98 0 0 1-1.921-1.5" clip-rule="evenodd" /></mask>
<g xmlns="http://www.w3.org/2000/svg" mask="url(#mask8_2_379)"><path fill="currentColor" d="m461.945 136-1.499-.074zm-19.436-3.379-1.087-1.033zm3.491.879h1.704v-3H446zm-1.475 5.975c-.546-.546-.865-1.398-.972-3.549l-2.996.149c.111 2.236.445 4.12 1.846 5.521zM452 140.5c-2.4 0-4.048-.003-5.287-.17-1.195-.16-1.781-.448-2.188-.855l-2.122 2.121c1.058 1.058 2.383 1.502 3.91 1.708 1.485.199 3.372.196 5.687.196zm7.475-1.025c-.408.407-.994.695-2.189.855-1.238.167-2.887.17-5.286.17v3c2.314 0 4.201.003 5.686-.196 1.528-.206 2.852-.65 3.91-1.708zm.971-3.549c-.107 2.151-.426 3.003-.971 3.549l2.121 2.121c1.402-1.401 1.735-3.285 1.847-5.521zm-4.15-2.426H458v-3h-1.704zm-3.842 0h-.908v3h.908zm-.908 0a.48.48 0 0 1-.466-.364l-2.911.728a3.48 3.48 0 0 0 3.377 2.636zm1.373-.364a.48.48 0 0 1-.465.364v3a3.48 3.48 0 0 0 3.376-2.636zm3.377-2.636a3.48 3.48 0 0 0-3.377 2.636l2.911.728a.48.48 0 0 1 .466-.364zm-8.592 3c.22 0 .412.15.465.364l2.911-.728a3.48 3.48 0 0 0-3.376-2.636zm15.739 2.575c.043-.874.088-1.691.024-2.362-.069-.73-.28-1.485-.889-2.125l-2.174 2.067c.005.006.009.009.019.034.014.037.04.125.057.307.039.404.015.965-.034 1.93zM458 133.5c1.01 0 1.612.003 2.041.063.197.028.294.06.336.078l.02.009.005.004v-.001l.002.002 2.174-2.067c-.621-.653-1.39-.894-2.122-.996-.685-.095-1.534-.092-2.456-.092zm-12-3c-.923 0-1.771-.003-2.456.092-.733.102-1.501.343-2.122.996l2.173 2.067.002-.002v.001l.005-.004.02-.009c.043-.018.14-.05.336-.078.43-.06 1.031-.063 2.042-.063zm-2.447 5.426c-.048-.965-.072-1.526-.034-1.93.017-.182.043-.27.057-.307.01-.025.014-.028.019-.034l-2.173-2.067c-.61.64-.82 1.395-.89 2.125-.063.671-.019 1.488.025 2.362z" /></g>
<path xmlns="http://www.w3.org/2000/svg" fill="currentColor" fill-rule="evenodd" d="M484 128.97c-.489-.036-.831-.12-1.111-.307a2 2 0 0 1-.552-.552c-.337-.504-.337-1.207-.337-2.611s0-2.107.337-2.611c.146-.219.333-.406.552-.552.504-.337 1.207-.337 2.611-.337h13c1.404 0 2.107 0 2.611.337a2 2 0 0 1 .552.552c.337.504.337 1.207.337 2.611s0 2.107-.337 2.611a2 2 0 0 1-.552.552c-.28.187-.622.271-1.111.307V134c0 3.771 0 5.657-1.172 6.828S495.771 142 492 142s-5.657 0-6.828-1.172S484 137.771 484 134zm1.5-5.47h13c.733 0 1.171.002 1.491.034.191.02.269.045.292.054a.5.5 0 0 1 .129.129c.009.023.034.101.054.292.032.32.034.758.034 1.491s-.002 1.171-.034 1.491a1.2 1.2 0 0 1-.054.292.5.5 0 0 1-.129.129 1.2 1.2 0 0 1-.292.054c-.32.032-.758.034-1.491.034h-13c-.733 0-1.171-.002-1.491-.034a1.2 1.2 0 0 1-.292-.054.5.5 0 0 1-.129-.129 1.2 1.2 0 0 1-.054-.292c-.032-.32-.034-.758-.034-1.491s.002-1.171.034-1.491a1.2 1.2 0 0 1 .054-.292.5.5 0 0 1 .129-.129 1.2 1.2 0 0 1 .292-.054c.32-.032.758-.034 1.491-.034m13 5.5h-13v5c0 1.928.003 3.223.133 4.189.124.923.339 1.318.599 1.579.261.26.656.475 1.579.599.966.13 2.261.133 4.189.133s3.223-.003 4.189-.133c.923-.124 1.318-.339 1.579-.599.26-.261.475-.656.599-1.579.13-.966.133-2.261.133-4.189zm1.912-1.716-.003.006.001-.002z" clip-rule="evenodd" />
<path xmlns="http://www.w3.org/2000/svg" stroke="currentColor" stroke-linecap="round" stroke-width="1.5" d="M489.75 134.25h4.5" />
<path xmlns="http://www.w3.org/2000/svg" stroke="currentColor" stroke-linecap="round" stroke-linejoin="round" stroke-width="1.5" d="M541 125.98c-3.33-.33-6.68-.5-10.02-.5q-2.97 0-5.94.3l-2.04.2m5.5-1.01.22-1.31c.16-.95.28-1.66 1.97-1.66h2.62c1.69 0 1.82.75 1.97 1.67l.22 1.3m3.35 4.17-.65 10.07c-.11 1.57-.2 2.79-2.99 2.79h-6.42c-2.79 0-2.88-1.22-2.99-2.79l-.65-10.07m5.18 7.36h3.33m-4.16-4h5" />
<path xmlns="http://www.w3.org/2000/svg" stroke="currentColor" stroke-width="1.5" d="M578 124.75h-12a3.25 3.25 0 0 0-3.25 3.25v10a3.25 3.25 0 0 0 3.25 3.25h12a3.25 3.25 0 0 0 3.25-3.25v-10a3.25 3.25 0 0 0-3.25-3.25Z" />
<path xmlns="http://www.w3.org/2000/svg" stroke="currentColor" stroke-linecap="round" stroke-width="1.5" d="M566.75 122.75v3.5" />
<path xmlns="http://www.w3.org/2000/svg" stroke="currentColor" stroke-width="1.5" d="M562 136.25h20" />
<path xmlns="http://www.w3.org/2000/svg" stroke="currentColor" stroke-linecap="round" stroke-width="1.5" d="M577.75 122.75v3.5" />
<path xmlns="http://www.w3.org/2000/svg" fill="currentColor" d="M570 133.5c-.274 0-.5-.248-.5-.547v-2.475l-.127.153a.474.474 0 0 1-.707.044.59.59 0 0 1-.04-.774l1-1.219a.48.48 0 0 1 .554-.146c.193.08.32.284.32.511v3.906c0 .306-.22.547-.5.547m3.5 0c-1.105 0-2-.898-2-2.007v-.986c0-1.109.895-2.007 2-2.007s2 .898 2 2.007v.986a2.003 2.003 0 0 1-2 2.007m0-3.898a.91.91 0 0 0-.909.913v.985a.91.91 0 0 0 .909.912.91.91 0 0 0 .909-.912v-.985a.91.91 0 0 0-.909-.913" />
<path xmlns="http://www.w3.org/2000/svg" stroke="currentColor" stroke-width="1.5" d="M618 124.75h-12a3.25 3.25 0 0 0-3.25 3.25v10a3.25 3.25 0 0 0 3.25 3.25h12a3.25 3.25 0 0 0 3.25-3.25v-10a3.25 3.25 0 0 0-3.25-3.25Z" />
<path xmlns="http://www.w3.org/2000/svg" stroke="currentColor" stroke-linecap="round" stroke-width="1.5" d="M606.75 122.75v3.5m-3 3h16.5m-2.5-6.5v3.5" />
<path xmlns="http://www.w3.org/2000/svg" fill="currentColor" d="M608.25 134a.75.75 0 1 0 0-1.5.75.75 0 0 0 0 1.5m4 0a.75.75 0 1 0 0-1.5.75.75 0 0 0 0 1.5m4 0a.75.75 0 1 0 0-1.5.75.75 0 0 0 0 1.5m-8 4a.75.75 0 1 0 0-1.5.75.75 0 0 0 0 1.5m4 0a.75.75 0 1 0 0-1.5.75.75 0 0 0 0 1.5m4 0a.75.75 0 1 0 0-1.5.75.75 0 0 0 0 1.5" />
<path xmlns="http://www.w3.org/2000/svg" stroke="currentColor" stroke-linejoin="round" stroke-width="1.5" d="M652 123a8 8 0 0 0-8 8v.327c0 1.686.532 3.319 1.506 4.673h-.006l.023.023q.298.413.651.787c.354.376 5.826 4.69 5.826 4.69.799-.407 5.174-3.997 5.826-4.69q.355-.379.657-.796l.017-.014h-.006a8 8 0 0 0 1.506-4.673V131a8 8 0 0 0-8-8Z" />
<path xmlns="http://www.w3.org/2000/svg" stroke="currentColor" stroke-width="1.5" d="M655.25 131a3.25 3.25 0 1 0-6.5 0 3.25 3.25 0 0 0 6.5 0Zm32.477-8.25a1.977 1.977 0 0 0-1.977 1.977V130a6.25 6.25 0 1 0 12.5 0v-5.273a1.977 1.977 0 0 0-1.977-1.977z" />
<path xmlns="http://www.w3.org/2000/svg" stroke="currentColor" stroke-linecap="round" stroke-width="1.5" d="M692 137v1" />
<path xmlns="http://www.w3.org/2000/svg" stroke="currentColor" stroke-width="1.5" d="M695 138.75h-6a1.25 1.25 0 0 0 0 2.5h6a1.25 1.25 0 0 0 0-2.5Z" />
<path xmlns="http://www.w3.org/2000/svg" stroke="currentColor" stroke-linecap="round" stroke-linejoin="round" stroke-width="1.5" d="M685.5 125a2.5 2.5 0 0 0-2.5 2.5v.328c0 .751.298 1.47.828 2L686 132m12.5-7a2.5 2.5 0 0 1 2.5 2.5v.328c0 .751-.298 1.47-.828 2L698 132" />
<mask xmlns="http://www.w3.org/2000/svg" id="mask9_2_379" width="20" height="16" x="722" y="124" maskUnits="userSpaceOnUse" style="mask-type:alpha"><path fill="currentColor" fill-rule="evenodd" d="M722.959 130.245c-.485-.266-.961-.693-.958-1.245.013-2.175.109-3.353.877-4.121.879-.879 2.293-.879 5.122-.879h8c2.828 0 4.242 0 5.121.879.768.768.865 1.946.877 4.121.003.552-.473.979-.957 1.245A2 2 0 0 0 740 132c0 .757.42 1.416 1.041 1.755.484.266.96.693.957 1.245-.012 2.175-.109 3.353-.877 4.121-.879.879-2.293.879-5.121.879h-8c-2.829 0-4.243 0-5.122-.879-.768-.768-.864-1.946-.877-4.121-.003-.552.473-.979.958-1.245a1.999 1.999 0 0 0 0-3.51" clip-rule="evenodd" /></mask>
<g xmlns="http://www.w3.org/2000/svg" mask="url(#mask9_2_379)"><path fill="currentColor" d="m741.121 139.121 1.061 1.061zm-18.243 0-1.06 1.061zm18.163-5.365.72-1.316zm.957 1.244-1.5-.008zm0-6-1.5.008zm-.957 1.245.72 1.315zM722.001 129l-1.499-.008zm.958 1.245-.721 1.315zm-1.141-6.427c-.666.666-.98 1.469-1.137 2.323-.149.811-.174 1.775-.179 2.851l2.999.016c.007-1.099.036-1.811.131-2.325.086-.471.204-.641.307-.744zM728 122.5c-1.372 0-2.552-.003-3.492.123-.983.132-1.926.431-2.69 1.195l2.121 2.121c.114-.114.318-.255.969-.343.694-.093 1.635-.096 3.092-.096zm8 0h-8v3h8zm6.182 1.318c-.765-.764-1.707-1.063-2.691-1.195-.94-.126-2.119-.123-3.491-.123v3c1.456 0 2.398.003 3.092.096.65.088.854.229.968.343zm1.316 5.174c-.006-1.076-.031-2.04-.18-2.851-.156-.854-.471-1.657-1.136-2.323l-2.122 2.121c.103.103.221.273.308.744.094.514.124 1.226.13 2.325zM741.5 132a.5.5 0 0 1 .261-.44l-1.44-2.631A3.5 3.5 0 0 0 738.5 132zm.261.44a.5.5 0 0 1-.261-.44h-3c0 1.327.739 2.479 1.821 3.071zm.421 7.742c.665-.666.98-1.469 1.136-2.323.149-.811.174-1.775.18-2.851l-3-.016c-.006 1.099-.036 1.811-.13 2.325-.087.471-.205.641-.308.744zM736 141.5c1.372 0 2.551.003 3.491-.123.984-.132 1.926-.43 2.691-1.195l-2.122-2.121c-.114.114-.318.255-.968.343-.694.093-1.636.096-3.092.096zm-8 0h8v-3h-8zm-6.182-1.318c.764.765 1.707 1.063 2.69 1.195.94.126 2.12.123 3.492.123v-3c-1.457 0-2.398-.003-3.092-.096-.651-.088-.855-.229-.969-.343zm-1.316-5.174c.005 1.076.03 2.041.179 2.851.157.854.471 1.657 1.137 2.323l2.121-2.121c-.103-.103-.221-.273-.307-.744-.095-.514-.124-1.226-.131-2.325zM722.5 132a.5.5 0 0 1-.262.44l1.441 2.631A3.5 3.5 0 0 0 725.5 132zm-.262-.44a.5.5 0 0 1 .262.44h3a3.5 3.5 0 0 0-1.821-3.071zm1.263 3.432a.5.5 0 0 1-.039.204c-.019.045-.035.061-.026.05a1 1 0 0 1 .078-.069 1.4 1.4 0 0 1 .165-.106l-1.441-2.631a3.9 3.9 0 0 0-1.08.854c-.339.396-.661.978-.656 1.714zm16.82.079q.097.054.164.106t.078.069c.009.011-.007-.005-.026-.05a.5.5 0 0 1-.039-.204l3 .016c.004-.736-.317-1.318-.657-1.714a3.9 3.9 0 0 0-1.08-.854zm.177-6.063c0-.084.018-.155.039-.204.019-.045.035-.061.026-.05a.5.5 0 0 1-.078.069q-.067.052-.164.106l1.44 2.631a3.9 3.9 0 0 0 1.08-.854c.34-.396.661-.978.657-1.714zm-19.996-.016c-.005.736.317 1.318.656 1.714.334.389.737.666 1.08.854l1.441-2.631a1.4 1.4 0 0 1-.165-.106 1 1 0 0 1-.078-.069c-.009-.011.007.005.026.05a.5.5 0 0 1 .039.204z" /><path stroke="currentColor" stroke-linecap="round" stroke-width="1.5" d="M729.75 125.75v2.5m0 3.5v1.5m0 3.5v1.5" /></g>
<path xmlns="http://www.w3.org/2000/svg" stroke="currentColor" stroke-width="1.5" d="M407.5 164.75a1.75 1.75 0 1 0-3.501.001 1.75 1.75 0 0 0 3.501-.001Zm6.5 7a1.75 1.75 0 1 0-3.501.001 1.75 1.75 0 0 0 3.501-.001Z" />
<path xmlns="http://www.w3.org/2000/svg" fill="currentColor" fill-rule="evenodd" d="M405.75 169a.75.75 0 0 0-.75.75v10.5a.75.75 0 0 0 1.5 0v-10.5a.75.75 0 0 0-.75-.75m13-6a.75.75 0 0 0-.75.75v10.5a.75.75 0 0 0 1.5 0v-10.5a.75.75 0 0 0-.75-.75m-6.5 0a.75.75 0 0 1 .75.75v3.5a.75.75 0 0 1-1.5 0v-3.5a.75.75 0 0 1 .75-.75m0 13a.75.75 0 0 0-.75.75v3.5a.75.75 0 0 0 1.5 0v-3.5a.75.75 0 0 0-.75-.75" clip-rule="evenodd" />
<path xmlns="http://www.w3.org/2000/svg" stroke="currentColor" stroke-width="1.5" d="M420.5 179.25a1.75 1.75 0 1 0-3.501.001 1.75 1.75 0 0 0 3.501-.001Z" />
<path xmlns="http://www.w3.org/2000/svg" stroke="currentColor" stroke-linecap="round" stroke-width="1.5" d="M451.25 167.75h-7.5" />
<path xmlns="http://www.w3.org/2000/svg" stroke="currentColor" stroke-width="1.5" d="M457.5 170a2.5 2.5 0 1 0 0-5 2.5 2.5 0 0 0 0 5Z" />
<path xmlns="http://www.w3.org/2000/svg" stroke="currentColor" stroke-linecap="round" stroke-width="1.5" d="M460.25 176.75h-8.5" />
<path xmlns="http://www.w3.org/2000/svg" stroke="currentColor" stroke-width="1.5" d="M445.5 179a2.5 2.5 0 1 0 0-5 2.5 2.5 0 0 0 0 5Z" />
<path xmlns="http://www.w3.org/2000/svg" stroke="currentColor" stroke-linecap="round" stroke-linejoin="round" stroke-width="1.5" d="m487 163 3 3m-3 13v-16zm0-16-3 3zm10 18-3-3m3-13v16zm0 16 3-3zm26-4 3-3m13 3h-16zm-16 0 3 3zm18-10-3 3m-13-3h16zm16 0-3-3zm40 7.5h-16l3 3m-5-8h16l-3-3" />
<path xmlns="http://www.w3.org/2000/svg" stroke="currentColor" stroke-width="1.5" d="M618 161.75h-12a4.25 4.25 0 0 0-4.25 4.25v12a4.25 4.25 0 0 0 4.25 4.25h12a4.25 4.25 0 0 0 4.25-4.25v-12a4.25 4.25 0 0 0-4.25-4.25Z" />
<path xmlns="http://www.w3.org/2000/svg" stroke="currentColor" stroke-linecap="round" stroke-linejoin="round" stroke-width="1.5" d="m609.118 167.601 2.261 2.26m-2.261 5.561v-7.821zm0-7.821-2.261 2.26zm5.621 8.798-2.26-2.26m2.26-5.561v7.821zm0 7.821 2.261-2.26z" />
<path xmlns="http://www.w3.org/2000/svg" stroke="currentColor" stroke-width="1.5" d="M662.25 172c0-5.661-4.589-10.25-10.25-10.25s-10.25 4.589-10.25 10.25 4.589 10.25 10.25 10.25 10.25-4.589 10.25-10.25Z" />
<path xmlns="http://www.w3.org/2000/svg" stroke="currentColor" stroke-linecap="round" stroke-linejoin="round" stroke-width="1.5" d="m649.118 167.601 2.261 2.26m-2.261 5.561v-7.821zm0-7.821-2.261 2.26zm5.621 8.798-2.26-2.26m2.26-5.561v7.821zm0 7.821 2.261-2.26z" />
<path xmlns="http://www.w3.org/2000/svg" stroke="currentColor" stroke-linejoin="round" stroke-width="1.5" d="M782 132a7 7 0 0 1-7 7h-8a5 5 0 1 1 1.561-9.751A7.002 7.002 0 0 1 782 132Z" />
<path xmlns="http://www.w3.org/2000/svg" fill="currentColor" d="M770.233 126.874a2.5 2.5 0 1 0-4.453 2.276 5 5 0 0 0-1.386.582 4 4 0 0 1 7.052-3.764 7 7 0 0 0-1.213.906" />
<path xmlns="http://www.w3.org/2000/svg" stroke="currentColor" stroke-width="1.5" d="M809.008 123.265c1.789-.261 2.466-.344 3.085-.175a4 4 0 0 1 .328.109c.597.234 1.09.706 2.368 1.984l1.347 1.347c1.19 1.19 2.035 2.036 2.605 2.762.56.712.792 1.231.839 1.75q.027.291 0 .583l.747.067-.747-.067c-.047.519-.279 1.038-.839 1.75-.57.725-1.415 1.571-2.605 2.761s-2.036 2.035-2.761 2.605c-.712.56-1.231.792-1.75.839l.067.747-.067-.747a3 3 0 0 1-.583 0c-.519-.047-1.038-.279-1.75-.839-.726-.57-1.572-1.415-2.762-2.605l-1.347-1.347c-1.278-1.278-1.75-1.771-1.984-2.368a4 4 0 0 1-.109-.328c-.169-.619-.086-1.296.175-3.085.185-1.272.317-2.169.492-2.861.171-.677.368-1.088.645-1.409a3 3 0 0 1 .336-.337c.321-.276.732-.473 1.409-.644.692-.175 1.589-.307 2.861-.492Z" />
<path xmlns="http://www.w3.org/2000/svg" stroke="currentColor" stroke-width="1.5" d="M811 131a1.887 1.887 0 1 0-2.67-2.667A1.887 1.887 0 0 0 811 131Z" />
<path xmlns="http://www.w3.org/2000/svg" fill="currentColor" fill-rule="evenodd" d="M850.304 138.764c-.525 0-.924.489-.649.937a2.75 2.75 0 0 0 2.345 1.313c.992 0 1.862-.525 2.345-1.313.275-.448-.124-.937-.649-.937-.334 0-.621.22-.872.44-.22.193-.508.31-.824.31s-.604-.117-.824-.31c-.251-.22-.538-.44-.872-.44" clip-rule="evenodd" />
<mask xmlns="http://www.w3.org/2000/svg" id="mask10_2_379" width="18" height="17" x="843" y="121" maskUnits="userSpaceOnUse" style="mask-type:alpha"><path fill="currentColor" fill-rule="evenodd" d="M859.5 130.85a9 9 0 0 0-3.959-7.456l-1.3-.879a4 4 0 0 0-4.482 0l-1.3.879a9 9 0 0 0-3.959 7.456v1.914a3 3 0 0 0 2 5.236h11a3 3 0 0 0 2-5.236z" clip-rule="evenodd" /></mask>
<g xmlns="http://www.w3.org/2000/svg" mask="url(#mask10_2_379)"><path fill="currentColor" d="m855.541 123.394-.84 1.243zm3.959 7.456h1.5zm-5.259-8.335.84-1.243zm-4.482 0-.84-1.243zm-1.3.879.84 1.243zm-3.959 7.456h1.5zm0 1.914 1 1.118.5-.448v-.67zm15 0H858v.67l.5.448zm-4.799-8.127A7.5 7.5 0 0 1 858 130.85h3c0-3.486-1.73-6.745-4.619-8.698zm-1.301-.879 1.301.879 1.68-2.485-1.3-.88zm-2.8 0a2.5 2.5 0 0 1 2.8 0l1.681-2.486a5.5 5.5 0 0 0-6.162 0zm-1.301.879 1.301-.879-1.681-2.486-1.3.88zM846 130.85a7.5 7.5 0 0 1 3.299-6.213l-1.68-2.485A10.5 10.5 0 0 0 843 130.85zm0 1.914v-1.914h-3v1.914zM845 135c0-.444.191-.842.5-1.118l-2-2.236A4.5 4.5 0 0 0 842 135zm1.5 1.5a1.5 1.5 0 0 1-1.5-1.5h-3a4.5 4.5 0 0 0 4.5 4.5zm11 0h-11v3h11zm1.5-1.5a1.5 1.5 0 0 1-1.5 1.5v3a4.5 4.5 0 0 0 4.5-4.5zm-.5-1.118c.309.276.5.674.5 1.118h3a4.5 4.5 0 0 0-1.5-3.354zm-.5-3.032v1.914h3v-1.914z" /></g>
<path xmlns="http://www.w3.org/2000/svg" stroke="currentColor" stroke-width="1.5" d="M891.117 123.663a1 1 0 0 1 1.766 0l1.956 3.683a1 1 0 0 0 .71.515l4.107.723a1 1 0 0 1 .546 1.68l-2.898 2.998a1 1 0 0 0-.271.835l.582 4.129a1 1 0 0 1-1.429 1.038l-3.747-1.83a1 1 0 0 0-.878 0l-3.747 1.83a1 1 0 0 1-1.429-1.038l.582-4.129a1 1 0 0 0-.271-.835l-2.898-2.998a1 1 0 0 1 .546-1.68l4.107-.723a1 1 0 0 0 .71-.515z" />
<path xmlns="http://www.w3.org/2000/svg" fill="currentColor" d="M691 166a1 1 0 1 0 2 0 1 1 0 0 0-2 0m0 6a1 1 0 1 0 2 0 1 1 0 0 0-2 0m0 6a1 1 0 1 0 2 0 1 1 0 0 0-2 0m35-5a1 1 0 1 0 0-2 1 1 0 0 0 0 2m6 0a1 1 0 1 0 0-2 1 1 0 0 0 0 2m6 0a1 1 0 1 0 0-2 1 1 0 0 0 0 2" />
<path xmlns="http://www.w3.org/2000/svg" stroke="currentColor" stroke-width="1.5" d="M62.25 172c0-5.661-4.59-10.25-10.25-10.25S41.75 166.339 41.75 172s4.59 10.25 10.25 10.25 10.25-4.589 10.25-10.25Z" />
<path xmlns="http://www.w3.org/2000/svg" fill="currentColor" d="M51 168a1 1 0 1 0 2 0 1 1 0 0 0-2 0m0 4a1 1 0 1 0 2 0 1 1 0 0 0-2 0m0 4a1 1 0 1 0 2 0 1 1 0 0 0-2 0" />
<path xmlns="http://www.w3.org/2000/svg" stroke="currentColor" stroke-width="1.5" d="M102.25 172c0-5.661-4.59-10.25-10.25-10.25S81.75 166.339 81.75 172s4.59 10.25 10.25 10.25 10.25-4.589 10.25-10.25Z" />
<path xmlns="http://www.w3.org/2000/svg" fill="currentColor" d="M88 173a1 1 0 1 0 0-2 1 1 0 0 0 0 2m4 0a1 1 0 1 0 0-2 1 1 0 0 0 0 2m4 0a1 1 0 1 0 0-2 1 1 0 0 0 0 2" />
<path xmlns="http://www.w3.org/2000/svg" stroke="currentColor" stroke-linecap="round" stroke-width="1.5" d="M141 166h-18m18 6h-18m18 6h-18m58-12h-18m18 6h-18m9 6h-9m95-12-12 12m12 0-12-12m48 4-4 4m4 0-4-4" />
<path xmlns="http://www.w3.org/2000/svg" stroke="currentColor" stroke-width="1.5" d="M301.25 172a9.25 9.25 0 0 0-9.25-9.25 9.25 9.25 0 0 0-9.25 9.25 9.25 9.25 0 0 0 9.25 9.25 9.25 9.25 0 0 0 9.25-9.25Zm40 0a9.25 9.25 0 0 0-9.25-9.25 9.25 9.25 0 0 0-9.25 9.25 9.25 9.25 0 0 0 9.25 9.25 9.25 9.25 0 0 0 9.25-9.25Z" />
<path xmlns="http://www.w3.org/2000/svg" stroke="currentColor" stroke-linecap="round" stroke-linejoin="round" stroke-width="1.5" d="m329 172 2 2 4-4" />
<path xmlns="http://www.w3.org/2000/svg" stroke="currentColor" stroke-width="1.5" d="M376 162.75h-8a5.25 5.25 0 0 0-5.25 5.25v8a5.25 5.25 0 0 0 5.25 5.25h8a5.25 5.25 0 0 0 5.25-5.25v-8a5.25 5.25 0 0 0-5.25-5.25Z" />
<path xmlns="http://www.w3.org/2000/svg" stroke="currentColor" stroke-linecap="round" stroke-linejoin="round" stroke-width="1.5" d="m369 172 2 2 4-4" />
<circle xmlns="http://www.w3.org/2000/svg" cx="209" cy="172" r="1" stroke="currentColor" stroke-width="1.2" />
<circle xmlns="http://www.w3.org/2000/svg" cx="207" cy="166" r="2" stroke="currentColor" stroke-width="1.5" />
<circle xmlns="http://www.w3.org/2000/svg" cx="212" cy="164" r="3" stroke="currentColor" stroke-width="1.5" />
<circle xmlns="http://www.w3.org/2000/svg" cx="217" cy="166" r="2" stroke="currentColor" stroke-width="1.5" />
<path xmlns="http://www.w3.org/2000/svg" fill="currentColor" fill-rule="evenodd" d="M214.743 165.217a3 3 0 0 0 .244-1.501q.608.195 1.178.466a2 2 0 0 0-1.059 1.173 8 8 0 0 0-.363-.138m-5.486 0a3 3 0 0 1-.244-1.501q-.608.195-1.178.466a2 2 0 0 1 1.059 1.173q.18-.073.363-.138m-3.48 2.366a2 2 0 0 1-.767-1.38 9.72 9.72 0 0 0-2.76 6.797 9.75 9.75 0 0 0 9.75 9.75 9.75 9.75 0 0 0 9.75-9.75 9.72 9.72 0 0 0-2.76-6.797 2 2 0 0 1-.767 1.38 8.25 8.25 0 1 1-12.446 0" clip-rule="evenodd" />
<circle xmlns="http://www.w3.org/2000/svg" cx="215" cy="172" r="1" stroke="currentColor" stroke-width="1.2" />
<path xmlns="http://www.w3.org/2000/svg" fill="currentColor" fill-rule="evenodd" d="M208.631 176c-.673 0-1.06.728-.57 1.19a5.73 5.73 0 0 0 3.939 1.56 5.73 5.73 0 0 0 3.938-1.56c.49-.462.103-1.19-.57-1.19a.97.97 0 0 0-.621.243A4.24 4.24 0 0 1 212 177.25a4.24 4.24 0 0 1-2.748-1.007.97.97 0 0 0-.621-.243" clip-rule="evenodd" />
    </g>
    <symbol id="iconix-home" viewBox="40 40 24 24"><use href="#iconix-source" /></symbol>
    <symbol id="iconix-settings" viewBox="720 80 24 24"><use href="#iconix-source" /></symbol>
    <symbol id="iconix-search" viewBox="480 80 24 24"><use href="#iconix-source" /></symbol>
    <symbol id="iconix-bell" viewBox="840 120 24 24"><use href="#iconix-source" /></symbol>
    <symbol id="iconix-inbox" viewBox="440 120 24 24"><use href="#iconix-source" /></symbol>
    <symbol id="iconix-pin" viewBox="120 40 24 24"><use href="#iconix-source" /></symbol>
    <symbol id="iconix-users" viewBox="760 80 24 24"><use href="#iconix-source" /></symbol>
    <symbol id="iconix-voice" viewBox="280 80 24 24"><use href="#iconix-source" /></symbol>
    <symbol id="iconix-lock" viewBox="80 40 24 24"><use href="#iconix-source" /></symbol>
    <symbol id="iconix-chevron-right" viewBox="880 160 24 24"><use href="#iconix-source" /></symbol>
    <symbol id="iconix-send" viewBox="880 40 24 24"><use href="#iconix-source" /></symbol>
    <symbol id="iconix-image" viewBox="40 120 24 24"><use href="#iconix-source" /></symbol>
    <symbol id="iconix-smile" viewBox="200 160 24 24"><use href="#iconix-source" /></symbol>
    <symbol id="iconix-more" viewBox="720 160 24 24"><use href="#iconix-source" /></symbol>
    <symbol id="iconix-reply" viewBox="760 160 24 24"><use href="#iconix-source" /></symbol>
    <symbol id="iconix-edit" viewBox="160 80 24 24"><use href="#iconix-source" /></symbol>
    <symbol id="iconix-trash" viewBox="520 120 24 24"><use href="#iconix-source" /></symbol>
    <symbol id="iconix-close" viewBox="240 160 24 24"><use href="#iconix-source" /></symbol>
    <symbol id="iconix-user" viewBox="440 40 24 24"><use href="#iconix-source" /></symbol>
    <symbol id="iconix-microphone" viewBox="280 80 24 24"><use href="#iconix-source" /></symbol>
    <symbol id="iconix-moon" viewBox="520 80 24 24"><use href="#iconix-source" /></symbol>
    <symbol id="iconix-play" viewBox="320 80 24 24"><use href="#iconix-source" /></symbol>
    <symbol id="iconix-pause" viewBox="360 80 24 24"><use href="#iconix-source" /></symbol>
    <!-- Picom semantic controls drawn to Iconix's 24px / 1.5px rounded-stroke specification. -->
    <symbol id="iconix-plus" viewBox="0 0 24 24"><path d="M12 5V19M5 12H19" fill="none" stroke="currentColor" stroke-width="1.5" stroke-linecap="round" /></symbol>
    <symbol id="iconix-hash" viewBox="0 0 24 24"><path d="M9 4L7 20M17 4L15 20M4 9H20M3 15H19" fill="none" stroke="currentColor" stroke-width="1.5" stroke-linecap="round" /></symbol>
    <symbol id="iconix-chevron-down" viewBox="0 0 24 24"><path d="M4.5 8.5L12 16L19.5 8.5" fill="none" stroke="currentColor" stroke-width="1.5" stroke-linecap="round" stroke-linejoin="round" /></symbol>
    <symbol id="iconix-eye" viewBox="0 0 24 24"><path d="M2.75 12C4.85 7.9 8 5.75 12 5.75S19.15 7.9 21.25 12C19.15 16.1 16 18.25 12 18.25S4.85 16.1 2.75 12Z" fill="none" stroke="currentColor" stroke-width="1.5" stroke-linejoin="round" /><circle cx="12" cy="12" r="2.75" fill="none" stroke="currentColor" stroke-width="1.5" /></symbol>
    <symbol id="iconix-minimize" viewBox="0 0 24 24"><path d="M5 12H19" fill="none" stroke="currentColor" stroke-width="1.5" stroke-linecap="round" /></symbol>
    <symbol id="iconix-maximize" viewBox="0 0 24 24"><rect x="4.75" y="4.75" width="14.5" height="14.5" rx="2.25" fill="none" stroke="currentColor" stroke-width="1.5" /></symbol>
    <symbol id="iconix-headphones" viewBox="0 0 24 24"><path d="M4 13V11C4 6.58 7.58 3 12 3S20 6.58 20 11V13M4 13H6.25C7.22 13 8 13.78 8 14.75V18.25C8 19.22 7.22 20 6.25 20H5.75C4.78 20 4 19.22 4 18.25V13ZM20 13H17.75C16.78 13 16 13.78 16 14.75V18.25C16 19.22 16.78 20 17.75 20H18.25C19.22 20 20 19.22 20 18.25V13Z" fill="none" stroke="currentColor" stroke-width="1.5" stroke-linecap="round" stroke-linejoin="round" /></symbol>
    <symbol id="iconix-paperclip" viewBox="0 0 24 24"><path d="M8.25 12.75L14.9 6.1C16.27 4.73 18.49 4.73 19.86 6.1C21.23 7.47 21.23 9.69 19.86 11.06L11.45 19.47C9.4 21.52 6.08 21.52 4.03 19.47C1.98 17.42 1.98 14.1 4.03 12.05L12.09 3.99M7.19 15.93L15.25 7.87" fill="none" stroke="currentColor" stroke-width="1.5" stroke-linecap="round" stroke-linejoin="round" /></symbol>
    <symbol id="iconix-sun" viewBox="0 0 24 24"><circle cx="12" cy="12" r="3.75" fill="none" stroke="currentColor" stroke-width="1.5" /><path d="M12 2.75V5M12 19V21.25M2.75 12H5M19 12H21.25M5.46 5.46L7.05 7.05M16.95 16.95L18.54 18.54M18.54 5.46L16.95 7.05M7.05 16.95L5.46 18.54" fill="none" stroke="currentColor" stroke-width="1.5" stroke-linecap="round" /></symbol>
    <symbol id="iconix-volume" viewBox="0 0 24 24"><path d="M4 9H7.5L12 5.25V18.75L7.5 15H4V9ZM15.5 9C16.45 9.75 17 10.75 17 12C17 13.25 16.45 14.25 15.5 15M17.75 6.75C19.2 8.1 20 9.85 20 12C20 14.15 19.2 15.9 17.75 17.25" fill="none" stroke="currentColor" stroke-width="1.5" stroke-linecap="round" stroke-linejoin="round" /></symbol>
    <symbol id="iconix-volume-off" viewBox="0 0 24 24"><path d="M4 9H7.5L12 5.25V18.75L7.5 15H4V9ZM16 9L21 14M21 9L16 14" fill="none" stroke="currentColor" stroke-width="1.5" stroke-linecap="round" stroke-linejoin="round" /></symbol>
    <symbol id="iconix-logout" viewBox="0 0 24 24"><path d="M10 5H6.75A2.75 2.75 0 0 0 4 7.75V16.25A2.75 2.75 0 0 0 6.75 19H10M14 8L18 12L14 16M18 12H9" fill="none" stroke="currentColor" stroke-width="1.5" stroke-linecap="round" stroke-linejoin="round" /></symbol>
  </defs>
</svg>