<svg xmlns="http://www.w3.org/2000/svg" viewBox="0 0 24 24" role="img" aria-hidden="true">
  <circle cx="12" cy="12" r="12" fill="#171a21"/>
  <path fill="#ebebeb" d="M11.979 0C5.678 0 .511 4.86.022 11.037l6.432 2.658c.545-.371 1.203-.59 1.912-.59.063 0 .125.004.188.006l2.861-4.142V8.841c0-2.585 2.099-4.683 4.684-4.683 2.584 0 4.683 2.098 4.683 4.683 0 2.584-2.099 4.682-4.683 4.682h-.058l-4.152 2.861c.002.063.006.125.006.188 0 .691-.219 1.329-.591 1.85l2.659 6.432C19.129 23.488 24 18.321 24 12.019 24 5.406 18.594.001 11.979.001zm-7.34 16.66l-1.456-3.566 1.066-1.442 2.542 1.048c-.637.926-.994 2.044-.994 3.227 0 .446.08.874.219 1.272l-1.377 1.461zm15.203-11.03c0-1.584-1.278-2.861-2.862-2.861-1.583 0-2.861 1.277-2.861 2.861 0 1.583 1.278 2.861 2.861 2.861 1.584 0 2.862-1.278 2.862-2.861zm-12.544 9.703c-1.526 0-2.763-1.227-2.763-2.742 0-1.515 1.237-2.742 2.763-2.742 1.526 0 2.763 1.227 2.763 2.742 0 1.515-1.237 2.742-2.763 2.742z"/>
</svg>
